<svg width="284" height="99" viewBox="0 0 284 99" fill="none" xmlns="http://www.w3.org/2000/svg">
<path opacity="0.4" d="M4 24C19 24 55 24 67 24C76 24 77 20 77 13C77 5.2 77 5 77 2" stroke="#9E1F63" stroke-width="2" stroke-linecap="round" stroke-linejoin="round" stroke-dasharray="4 5"/>
<path opacity="0.4" d="M282 72C255.493 72 186.877 72 165.671 72C156.767 72 153 76.6742 153 84.104C153 91.2687 153 93.2444 153 96" stroke="#9E1F63" stroke-width="2" stroke-linecap="round" stroke-linejoin="round" stroke-dasharray="4 5"/>
<path opacity="0.4" d="M274.707 50.7071C275.098 50.3166 275.098 49.6834 274.707 49.2929L268.343 42.9289C267.953 42.5384 267.319 42.5384 266.929 42.9289C266.538 43.3195 266.538 43.9526 266.929 44.3431L272.586 50L266.929 55.6569C266.538 56.0474 266.538 56.6805 266.929 57.0711C267.319 57.4616 267.953 57.4616 268.343 57.0711L274.707 50.7071ZM3 51H274V49H3V51Z" fill="#9E1F63"/>
</svg>
