<svg width="300" height="31" viewBox="0 0 300 31" fill="none" xmlns="http://www.w3.org/2000/svg">
<path d="M202 19L222 19" stroke="black" stroke-width="2.5" stroke-linecap="round" stroke-dasharray="3 4"/>
<path d="M78 19L98 19" stroke="black" stroke-width="2.5" stroke-linecap="round" stroke-dasharray="3 4"/>
<path d="M295.787 20.4021H232.874C231.19 20.4021 229.861 19.0729 229.861 17.3893V14.5537C229.861 12.9587 231.19 11.541 232.874 11.541H295.787C297.471 11.541 298.8 12.8701 298.8 14.5537V17.3893C298.8 19.0729 297.471 20.4021 295.787 20.4021Z" fill="black" stroke="black" stroke-width="2" stroke-miterlimit="10" stroke-linecap="round" stroke-linejoin="round"/>
<path d="M295.787 29.2632H232.874C231.19 29.2632 229.861 27.934 229.861 26.2504V23.4149C229.861 21.7312 231.19 20.4021 232.874 20.4021H295.787C297.471 20.4021 298.8 21.7312 298.8 23.4149V26.2504C298.8 27.934 297.471 29.2632 295.787 29.2632Z" fill="black" stroke="black" stroke-width="2" stroke-miterlimit="10" stroke-linecap="round" stroke-linejoin="round"/>
<path d="M251.836 11.541H243.596V29.2632H251.836V11.541Z" fill="black" stroke="black" stroke-width="2.0621" stroke-miterlimit="10" stroke-linecap="round" stroke-linejoin="round" stroke-dasharray="6.83 6.83"/>
<path d="M283.027 11.541H274.787V29.2632H283.027V11.541Z" fill="black" stroke="black" stroke-width="2.0621" stroke-miterlimit="10" stroke-linecap="round" stroke-linejoin="round" stroke-dasharray="6.83 6.83"/>
<path d="M293.927 18.6299H231.013C229.329 18.6299 228 17.3007 228 15.6171V12.7815C228 11.1865 229.329 9.76875 231.013 9.76875H293.927C295.61 9.76875 296.939 11.0979 296.939 12.7815V15.6171C296.939 17.3007 295.61 18.6299 293.927 18.6299Z" fill="#FF7171" stroke="black" stroke-width="1.8" stroke-miterlimit="10" stroke-linecap="round" stroke-linejoin="round"/>
<path d="M293.927 27.491H231.013C229.329 27.491 228 26.1618 228 24.4782V21.6426C228 19.959 229.329 18.6299 231.013 18.6299H293.927C295.61 18.6299 296.939 19.959 296.939 21.6426V24.4782C296.939 26.1618 295.61 27.491 293.927 27.491Z" fill="#FF7171" stroke="black" stroke-width="1.8" stroke-miterlimit="10" stroke-linecap="round" stroke-linejoin="round"/>
<path d="M249.976 9.76875H241.735V27.491H249.976V9.76875Z" fill="black" stroke="black" stroke-width="2.0621" stroke-miterlimit="10" stroke-linecap="round" stroke-linejoin="round" stroke-dasharray="6.83 6.83"/>
<path d="M281.167 9.76875H272.926V27.491H281.167V9.76875Z" fill="black" stroke="black" stroke-width="2.0621" stroke-miterlimit="10" stroke-linecap="round" stroke-linejoin="round" stroke-dasharray="6.83 6.83"/>
<circle cx="262.115" cy="16.4146" r="7.80416" fill="white" stroke="black" stroke-width="3"/>
<circle cx="261.229" cy="15.5285" r="7.80416" fill="white" stroke="black" stroke-width="3"/>
<path d="M261.672 7.55348C261.672 5.3382 263.799 2.23682 268.761 2.23682C273.723 2.23682 277.031 6.66737 277.179 9.3257" stroke="black" stroke-width="2.5"/>
<path d="M261.229 15.0854V11.0979" stroke="black" stroke-width="2" stroke-linecap="round"/>
<path d="M261.672 15.0854L265.66 15.0854" stroke="black" stroke-width="2" stroke-linecap="round"/>
<path d="M68.7874 20.4021H5.87358C4.18998 20.4021 2.86081 19.0729 2.86081 17.3893V14.5537C2.86081 12.9587 4.18998 11.541 5.87358 11.541H68.7874C70.471 11.541 71.8002 12.8701 71.8002 14.5537V17.3893C71.8002 19.0729 70.471 20.4021 68.7874 20.4021Z" fill="black" stroke="black" stroke-width="2" stroke-miterlimit="10" stroke-linecap="round" stroke-linejoin="round"/>
<path d="M68.7874 29.2632H5.87358C4.18998 29.2632 2.86081 27.934 2.86081 26.2504V23.4149C2.86081 21.7312 4.18998 20.4021 5.87358 20.4021H68.7874C70.471 20.4021 71.8002 21.7312 71.8002 23.4149V26.2504C71.8002 27.934 70.471 29.2632 68.7874 29.2632Z" fill="black" stroke="black" stroke-width="2" stroke-miterlimit="10" stroke-linecap="round" stroke-linejoin="round"/>
<path d="M24.8363 11.541H16.5955V29.2632H24.8363V11.541Z" fill="black" stroke="black" stroke-width="2.0621" stroke-miterlimit="10" stroke-linecap="round" stroke-linejoin="round" stroke-dasharray="6.83 6.83"/>
<path d="M56.0275 11.541H47.7866V29.2632H56.0275V11.541Z" fill="black" stroke="black" stroke-width="2.0621" stroke-miterlimit="10" stroke-linecap="round" stroke-linejoin="round" stroke-dasharray="6.83 6.83"/>
<path d="M66.9266 18.6299H4.01278C2.32917 18.6299 1 17.3007 1 15.6171V12.7815C1 11.1865 2.32917 9.76875 4.01278 9.76875H66.9266C68.6102 9.76875 69.9394 11.0979 69.9394 12.7815V15.6171C69.9394 17.3007 68.6102 18.6299 66.9266 18.6299Z" fill="#FF7171" stroke="black" stroke-width="1.8" stroke-miterlimit="10" stroke-linecap="round" stroke-linejoin="round"/>
<path d="M66.9266 27.491H4.01278C2.32917 27.491 1 26.1618 1 24.4782V21.6426C1 19.959 2.32917 18.6299 4.01278 18.6299H66.9266C68.6102 18.6299 69.9394 19.959 69.9394 21.6426V24.4782C69.9394 26.1618 68.6102 27.491 66.9266 27.491Z" fill="#FF7171" stroke="black" stroke-width="1.8" stroke-miterlimit="10" stroke-linecap="round" stroke-linejoin="round"/>
<path d="M22.9755 9.76875H14.7347V27.491H22.9755V9.76875Z" fill="black" stroke="black" stroke-width="2.0621" stroke-miterlimit="10" stroke-linecap="round" stroke-linejoin="round" stroke-dasharray="6.83 6.83"/>
<path d="M54.1666 9.76875H45.9258V27.491H54.1666V9.76875Z" fill="black" stroke="black" stroke-width="2.0621" stroke-miterlimit="10" stroke-linecap="round" stroke-linejoin="round" stroke-dasharray="6.83 6.83"/>
<circle cx="35.1153" cy="16.4146" r="7.80416" fill="white" stroke="black" stroke-width="3"/>
<circle cx="34.2291" cy="15.5285" r="7.80416" fill="white" stroke="black" stroke-width="3"/>
<path d="M34.6722 7.55348C34.6722 5.3382 36.7988 2.23682 41.7611 2.23682C46.7233 2.23682 50.0314 6.66737 50.1791 9.3257" stroke="black" stroke-width="2.5"/>
<path d="M34.2291 15.0854V11.0979" stroke="black" stroke-width="2" stroke-linecap="round"/>
<path d="M34.6722 15.0854L38.6597 15.0854" stroke="black" stroke-width="2" stroke-linecap="round"/>
</svg>
