<svg width="375" height="602" viewBox="0 0 375 602" fill="none" xmlns="http://www.w3.org/2000/svg">
<rect width="375" height="602" fill="#DD4074"/>
<path opacity="0.4" d="M137 616C137 590.667 137 536 137 524C137 509 145 505 156 505C164.8 505 305 505 375 505" stroke="#9E1F63" stroke-width="1.9184" stroke-miterlimit="10" stroke-linecap="round" stroke-linejoin="round" stroke-dasharray="6.47 6.47"/>
<path d="M238 45L258 45" stroke="black" stroke-width="2.5" stroke-linecap="round" stroke-dasharray="3 4"/>
<path d="M114 45L134 45" stroke="black" stroke-width="2.5" stroke-linecap="round" stroke-dasharray="3 4"/>
<path d="M331.787 46.4021H268.874C267.19 46.4021 265.861 45.0729 265.861 43.3893V40.5537C265.861 38.9587 267.19 37.541 268.874 37.541H331.787C333.471 37.541 334.8 38.8701 334.8 40.5537V43.3893C334.8 45.0729 333.471 46.4021 331.787 46.4021Z" fill="black" stroke="black" stroke-width="2" stroke-miterlimit="10" stroke-linecap="round" stroke-linejoin="round"/>
<path d="M331.787 55.2632H268.874C267.19 55.2632 265.861 53.934 265.861 52.2504V49.4149C265.861 47.7312 267.19 46.4021 268.874 46.4021H331.787C333.471 46.4021 334.8 47.7312 334.8 49.4149V52.2504C334.8 53.934 333.471 55.2632 331.787 55.2632Z" fill="black" stroke="black" stroke-width="2" stroke-miterlimit="10" stroke-linecap="round" stroke-linejoin="round"/>
<path d="M287.836 37.541H279.596V55.2632H287.836V37.541Z" fill="black" stroke="black" stroke-width="2.0621" stroke-miterlimit="10" stroke-linecap="round" stroke-linejoin="round" stroke-dasharray="6.83 6.83"/>
<path d="M319.027 37.541H310.787V55.2632H319.027V37.541Z" fill="black" stroke="black" stroke-width="2.0621" stroke-miterlimit="10" stroke-linecap="round" stroke-linejoin="round" stroke-dasharray="6.83 6.83"/>
<path d="M329.927 44.6299H267.013C265.329 44.6299 264 43.3007 264 41.6171V38.7815C264 37.1865 265.329 35.7688 267.013 35.7688H329.927C331.61 35.7688 332.939 37.0979 332.939 38.7815V41.6171C332.939 43.3007 331.61 44.6299 329.927 44.6299Z" fill="#FF7171" stroke="black" stroke-width="1.8" stroke-miterlimit="10" stroke-linecap="round" stroke-linejoin="round"/>
<path d="M329.927 53.491H267.013C265.329 53.491 264 52.1618 264 50.4782V47.6426C264 45.959 265.329 44.6299 267.013 44.6299H329.927C331.61 44.6299 332.939 45.959 332.939 47.6426V50.4782C332.939 52.1618 331.61 53.491 329.927 53.491Z" fill="#FF7171" stroke="black" stroke-width="1.8" stroke-miterlimit="10" stroke-linecap="round" stroke-linejoin="round"/>
<path d="M285.976 35.7688H277.735V53.491H285.976V35.7688Z" fill="black" stroke="black" stroke-width="2.0621" stroke-miterlimit="10" stroke-linecap="round" stroke-linejoin="round" stroke-dasharray="6.83 6.83"/>
<path d="M317.167 35.7688H308.926V53.491H317.167V35.7688Z" fill="black" stroke="black" stroke-width="2.0621" stroke-miterlimit="10" stroke-linecap="round" stroke-linejoin="round" stroke-dasharray="6.83 6.83"/>
<circle cx="298.115" cy="42.4146" r="7.80416" fill="white" stroke="black" stroke-width="3"/>
<circle cx="297.229" cy="41.5285" r="7.80416" fill="white" stroke="black" stroke-width="3"/>
<path d="M297.672 33.5535C297.672 31.3382 299.799 28.2368 304.761 28.2368C309.723 28.2368 313.031 32.6674 313.179 35.3257" stroke="black" stroke-width="2.5"/>
<path d="M297.229 41.0854V37.0979" stroke="black" stroke-width="2" stroke-linecap="round"/>
<path d="M297.672 41.0854L301.66 41.0854" stroke="black" stroke-width="2" stroke-linecap="round"/>
<path d="M104.787 46.4021H41.8736C40.19 46.4021 38.8608 45.0729 38.8608 43.3893V40.5537C38.8608 38.9587 40.19 37.541 41.8736 37.541H104.787C106.471 37.541 107.8 38.8701 107.8 40.5537V43.3893C107.8 45.0729 106.471 46.4021 104.787 46.4021Z" fill="black" stroke="black" stroke-width="2" stroke-miterlimit="10" stroke-linecap="round" stroke-linejoin="round"/>
<path d="M104.787 55.2632H41.8736C40.19 55.2632 38.8608 53.934 38.8608 52.2504V49.4149C38.8608 47.7312 40.19 46.4021 41.8736 46.4021H104.787C106.471 46.4021 107.8 47.7312 107.8 49.4149V52.2504C107.8 53.934 106.471 55.2632 104.787 55.2632Z" fill="black" stroke="black" stroke-width="2" stroke-miterlimit="10" stroke-linecap="round" stroke-linejoin="round"/>
<path d="M60.8363 37.541H52.5955V55.2632H60.8363V37.541Z" fill="black" stroke="black" stroke-width="2.0621" stroke-miterlimit="10" stroke-linecap="round" stroke-linejoin="round" stroke-dasharray="6.83 6.83"/>
<path d="M92.0275 37.541H83.7866V55.2632H92.0275V37.541Z" fill="black" stroke="black" stroke-width="2.0621" stroke-miterlimit="10" stroke-linecap="round" stroke-linejoin="round" stroke-dasharray="6.83 6.83"/>
<path d="M102.927 44.6299H40.0128C38.3292 44.6299 37 43.3007 37 41.6171V38.7815C37 37.1865 38.3292 35.7688 40.0128 35.7688H102.927C104.61 35.7688 105.939 37.0979 105.939 38.7815V41.6171C105.939 43.3007 104.61 44.6299 102.927 44.6299Z" fill="#FF7171" stroke="black" stroke-width="1.8" stroke-miterlimit="10" stroke-linecap="round" stroke-linejoin="round"/>
<path d="M102.927 53.491H40.0128C38.3292 53.491 37 52.1618 37 50.4782V47.6426C37 45.959 38.3292 44.6299 40.0128 44.6299H102.927C104.61 44.6299 105.939 45.959 105.939 47.6426V50.4782C105.939 52.1618 104.61 53.491 102.927 53.491Z" fill="#FF7171" stroke="black" stroke-width="1.8" stroke-miterlimit="10" stroke-linecap="round" stroke-linejoin="round"/>
<path d="M58.9755 35.7688H50.7347V53.491H58.9755V35.7688Z" fill="black" stroke="black" stroke-width="2.0621" stroke-miterlimit="10" stroke-linecap="round" stroke-linejoin="round" stroke-dasharray="6.83 6.83"/>
<path d="M90.1666 35.7688H81.9258V53.491H90.1666V35.7688Z" fill="black" stroke="black" stroke-width="2.0621" stroke-miterlimit="10" stroke-linecap="round" stroke-linejoin="round" stroke-dasharray="6.83 6.83"/>
<circle cx="71.1153" cy="42.4146" r="7.80416" fill="white" stroke="black" stroke-width="3"/>
<circle cx="70.2291" cy="41.5285" r="7.80416" fill="white" stroke="black" stroke-width="3"/>
<path d="M70.6722 33.5535C70.6722 31.3382 72.7988 28.2368 77.7611 28.2368C82.7233 28.2368 86.0314 32.6674 86.1791 35.3257" stroke="black" stroke-width="2.5"/>
<path d="M70.2291 41.0854V37.0979" stroke="black" stroke-width="2" stroke-linecap="round"/>
<path d="M70.6722 41.0854L74.6597 41.0854" stroke="black" stroke-width="2" stroke-linecap="round"/>
<path d="M186.458 463.955C186.458 460.479 183.764 457.647 180.458 457.647C177.151 457.647 174.458 460.479 174.458 463.955C174.458 467.431 177.151 470.263 180.458 470.263C183.764 470.263 186.458 467.431 186.458 463.955Z" fill="white"/>
<path d="M200.663 463.955C200.663 460.479 197.969 457.647 194.662 457.647C191.356 457.647 188.662 460.479 188.662 463.955C188.662 467.431 191.234 470.263 194.54 470.263C197.969 470.263 200.663 467.431 200.663 463.955Z" fill="white"/>
<path d="M187.561 468.461C187.316 468.719 187.071 469.105 186.826 469.362C184.499 471.937 181.683 472.709 178.499 471.937C175.315 471.165 173.111 469.105 172.254 465.758C171.03 461.123 174.213 456.231 178.744 455.33C182.05 454.815 184.744 455.845 186.949 458.42C187.071 458.548 187.193 458.806 187.193 458.806C188.173 457.905 188.908 457.004 189.887 456.36C194.663 452.884 201.276 455.587 202.745 461.381C203.847 465.758 201.276 470.392 196.99 471.551C193.561 472.452 190.5 471.551 188.051 468.719C187.928 468.59 187.806 468.461 187.683 468.332C187.683 468.461 187.683 468.461 187.561 468.461ZM194.663 457.518C194.051 457.647 193.439 457.647 192.949 457.905C190.377 458.677 188.663 461.381 188.908 463.955C189.275 466.788 191.234 468.719 194.051 469.105C196.622 469.362 199.194 467.817 200.051 465.243C201.276 461.638 198.459 457.647 194.663 457.518ZM180.458 469.491C183.642 469.491 186.214 466.916 186.214 463.827C186.214 460.608 183.52 457.905 180.458 457.905C177.275 457.905 174.703 460.608 174.703 463.827C174.703 466.916 177.275 469.491 180.458 469.491Z" fill="black"/>
<path d="M194.785 457.132C196.377 457.132 197.601 458.42 197.724 460.093C197.724 461.767 196.377 463.183 194.662 463.183C193.07 463.183 191.723 461.767 191.723 460.222C191.846 458.42 193.193 457.004 194.785 457.132Z" fill="black"/>
<path d="M180.58 457.132C182.172 457.132 183.519 458.42 183.519 460.093C183.519 461.767 182.172 463.183 180.58 463.183C178.988 463.183 177.641 461.767 177.641 460.222C177.641 458.548 178.988 457.132 180.58 457.132Z" fill="black"/>
<path d="M302.285 535.142C296.328 529.765 288.476 527.345 280.353 528.152C267.627 529.765 257.338 539.713 255.713 552.35C254.63 561.223 257.609 569.827 263.836 576.011C266.273 578.431 267.627 581.388 267.898 584.615C266.002 585.421 264.919 587.303 264.919 589.454C264.919 591.068 265.461 592.412 266.544 593.219C265.461 594.294 264.648 595.638 264.648 597.252C264.648 598.865 265.19 600.209 266.273 601.016C265.19 602.091 264.648 603.436 264.648 604.78C264.648 607.738 267.085 610.158 270.064 610.158H296.599C299.577 610.158 302.014 607.738 302.014 604.78C302.014 603.167 301.472 601.823 300.389 601.016C301.472 599.94 302.014 598.596 302.014 597.252C302.014 595.638 301.472 594.294 300.389 593.488C301.472 592.412 302.014 591.068 302.014 589.723C302.014 587.572 300.66 585.69 299.036 584.884C299.306 581.657 300.66 578.7 303.097 576.28C308.512 570.902 311.491 563.912 311.491 556.383C311.762 548.048 308.242 540.52 302.285 535.142Z" fill="white"/>
<path d="M302.285 535.142C296.328 529.765 288.476 527.345 280.353 528.152C267.627 529.765 257.338 539.713 255.713 552.35C254.63 561.223 257.609 569.827 263.836 576.011C266.273 578.431 267.627 581.388 267.898 584.615C266.002 585.421 264.919 587.303 264.919 589.454C264.919 591.068 265.461 592.412 266.544 593.219C265.461 594.294 264.648 595.638 264.648 597.252C264.648 598.865 265.19 600.209 266.273 601.016C265.19 602.091 264.648 603.436 264.648 604.78C264.648 607.738 267.085 610.158 270.064 610.158H296.599C299.577 610.158 302.014 607.738 302.014 604.78C302.014 603.167 301.472 601.823 300.389 601.016C301.472 599.94 302.014 598.596 302.014 597.252C302.014 595.638 301.472 594.294 300.389 593.488C301.472 592.412 302.014 591.068 302.014 589.723C302.014 587.572 300.66 585.69 299.036 584.884C299.306 581.657 300.66 578.7 303.097 576.28C308.512 570.902 311.491 563.912 311.491 556.383C311.762 548.048 308.242 540.52 302.285 535.142Z" stroke="white" stroke-width="0.5386" stroke-miterlimit="10"/>
<path d="M302.285 535.142C296.328 529.765 288.476 527.345 280.353 528.152C267.627 529.765 257.338 539.713 255.713 552.35C254.63 561.223 257.609 569.827 263.836 576.011C266.273 578.431 267.627 581.388 267.898 584.615C266.002 585.421 264.919 587.303 264.919 589.454C264.919 591.068 265.461 592.412 266.544 593.219C265.461 594.294 264.648 595.638 264.648 597.252C264.648 598.865 265.19 600.209 266.273 601.016C265.19 602.091 264.648 603.436 264.648 604.78C264.648 607.738 267.085 610.158 270.064 610.158H296.599C299.577 610.158 302.014 607.738 302.014 604.78C302.014 603.167 301.472 601.823 300.389 601.016C301.472 599.94 302.014 598.596 302.014 597.252C302.014 595.638 301.472 594.294 300.389 593.488C301.472 592.412 302.014 591.068 302.014 589.723C302.014 587.572 300.66 585.69 299.036 584.884C299.306 581.657 300.66 578.7 303.097 576.28C308.512 570.902 311.491 563.912 311.491 556.383C311.762 548.048 308.242 540.52 302.285 535.142ZM296.869 607.2H270.335C268.981 607.2 267.898 606.124 267.898 604.78C267.898 603.436 268.981 602.36 270.335 602.36H296.869C298.223 602.36 299.306 603.436 299.306 604.78C299.306 606.393 298.223 607.2 296.869 607.2ZM296.869 599.672H270.335C268.981 599.672 267.898 598.596 267.898 597.252C267.898 595.907 268.981 594.832 270.335 594.832H296.869C298.223 594.832 299.306 595.907 299.306 597.252C299.306 598.596 298.223 599.672 296.869 599.672ZM296.869 591.874H270.335C268.981 591.874 267.898 590.799 267.898 589.454C267.898 588.11 268.981 587.035 270.335 587.035H296.869C298.223 587.035 299.306 588.11 299.306 589.454C299.306 590.799 298.223 591.874 296.869 591.874ZM300.931 573.86C298.223 576.549 296.328 580.313 296.057 584.077H270.876C270.605 580.313 268.71 576.549 265.732 573.591C260.045 568.214 257.609 560.416 258.421 552.619C260.045 541.595 269.522 532.454 280.624 531.378C287.934 530.572 294.703 532.723 300.119 537.562C305.534 542.402 308.512 549.124 308.512 556.114C308.512 562.836 305.805 569.02 300.931 573.86Z" fill="black"/>
<path d="M302.285 535.142C296.328 529.765 288.476 527.345 280.353 528.152C267.627 529.765 257.338 539.713 255.713 552.35C254.63 561.223 257.609 569.827 263.836 576.011C266.273 578.431 267.627 581.388 267.898 584.615C266.002 585.421 264.919 587.303 264.919 589.454C264.919 591.068 265.461 592.412 266.544 593.219C265.461 594.294 264.648 595.638 264.648 597.252C264.648 598.865 265.19 600.209 266.273 601.016C265.19 602.091 264.648 603.436 264.648 604.78C264.648 607.738 267.085 610.158 270.064 610.158H296.599C299.577 610.158 302.014 607.738 302.014 604.78C302.014 603.167 301.472 601.823 300.389 601.016C301.472 599.94 302.014 598.596 302.014 597.252C302.014 595.638 301.472 594.294 300.389 593.488C301.472 592.412 302.014 591.068 302.014 589.723C302.014 587.572 300.66 585.69 299.036 584.884C299.306 581.657 300.66 578.7 303.097 576.28C308.512 570.902 311.491 563.912 311.491 556.383C311.762 548.048 308.242 540.52 302.285 535.142ZM296.869 607.2H270.335C268.981 607.2 267.898 606.124 267.898 604.78C267.898 603.436 268.981 602.36 270.335 602.36H296.869C298.223 602.36 299.306 603.436 299.306 604.78C299.306 606.393 298.223 607.2 296.869 607.2ZM296.869 599.672H270.335C268.981 599.672 267.898 598.596 267.898 597.252C267.898 595.907 268.981 594.832 270.335 594.832H296.869C298.223 594.832 299.306 595.907 299.306 597.252C299.306 598.596 298.223 599.672 296.869 599.672ZM296.869 591.874H270.335C268.981 591.874 267.898 590.799 267.898 589.454C267.898 588.11 268.981 587.035 270.335 587.035H296.869C298.223 587.035 299.306 588.11 299.306 589.454C299.306 590.799 298.223 591.874 296.869 591.874ZM300.931 573.86C298.223 576.549 296.328 580.313 296.057 584.077H270.876C270.605 580.313 268.71 576.549 265.732 573.591C260.045 568.214 257.609 560.416 258.421 552.619C260.045 541.595 269.522 532.454 280.624 531.378C287.934 530.572 294.703 532.723 300.119 537.562C305.534 542.402 308.512 549.124 308.512 556.114C308.512 562.836 305.805 569.02 300.931 573.86Z" stroke="black" stroke-width="0.5386" stroke-miterlimit="10"/>
<path d="M286.039 574.398C284.414 571.709 284.414 567.407 285.227 564.449C285.497 562.567 285.768 560.416 288.476 560.147C290.371 559.879 291.183 561.223 290.642 562.836C289.83 565.256 284.956 564.449 282.79 564.449C278.999 564.449 276.021 563.912 273.584 560.954C271.688 558.803 268.71 562.03 270.605 564.181C275.208 569.289 283.331 569.558 289.559 568.751C294.974 567.945 296.599 563.643 294.433 558.803C292.537 554.77 285.768 554.77 283.06 557.997C279.541 562.298 279.811 571.978 282.519 576.817C283.873 579.237 287.663 576.817 286.039 574.398Z" fill="black"/>
<path d="M81 624.5C81 624.5 81 590.7 81 580.1C81 569.5 88.5 565.4 97.5 565.4C106.5 565.4 150.6 565.4 173.5 565.4C188.1 565.4 188.4 554.1 188.4 548.7C188.4 543.3 188.4 484.9 188.4 484.9" stroke="black" stroke-width="1.9184" stroke-miterlimit="10" stroke-linecap="round" stroke-linejoin="round" stroke-dasharray="6.47 6.47"/>
<path d="M85.6072 522.571C84.75 522.571 84 522.571 83.25 522.571C82.5 522.571 81.8572 522.571 81.1072 522.571C79.6072 522.571 79.2857 522.25 79.2857 520.75C79.2857 519.571 79.2857 518.5 79.2857 517.321C79.2857 515.929 79.5 515.714 80.8929 515.714C82.0715 515.714 83.3572 515.714 84.5357 515.714C84.8572 515.714 85.1786 515.607 85.6072 515.607C85.6072 515.179 85.7143 514.75 85.7143 514.321C85.7143 513.143 85.7143 511.857 85.7143 510.679C85.7143 509.393 85.9286 509.179 87.2143 509.179C88.6072 509.179 89.8929 509.071 91.2857 509.071C92.1429 509.071 92.3572 509.286 92.4643 510.25C92.4643 511.536 92.4643 512.821 92.4643 514C92.4643 514.214 92.4643 514.429 92.4643 514.643C92.4643 515.607 92.5715 515.714 93.6429 515.714C95.0357 515.714 96.3215 515.714 97.7143 515.714C98.8929 515.714 99.1072 515.929 99.1072 517.107C99.1072 518.5 99.2143 520 99.2143 521.393C99.2143 522.25 98.8929 522.571 98.0357 522.571C96.6429 522.571 95.25 522.571 93.8572 522.571C92.5715 522.571 92.5715 522.571 92.5715 523.964C92.5715 525.143 92.5715 526.321 92.5715 527.5C92.5715 528.679 92.25 529 91.0715 529C89.7857 529 88.5 529 87.3215 529C86.1429 529 85.8215 528.571 85.8215 527.393C85.8215 526 85.8215 524.714 85.8215 523.321C85.7143 523.107 85.6072 523 85.6072 522.571ZM87.3215 510.893C87.3215 511.429 87.2143 511.75 87.3215 512.179C87.3215 513.25 87.3215 514.429 87.3215 515.5C87.3215 517.214 87.1072 517.429 85.5 517.429C84.3215 517.429 83.1429 517.429 82.0715 517.536C81.75 517.536 81.4286 517.643 81 517.643C81 518.714 80.7857 519.786 81.2143 520.75C81.5357 520.75 81.8572 520.857 82.0715 520.857C83.3572 520.857 84.6429 520.857 86.0357 520.857C87.3215 520.857 87.4286 521.071 87.5357 522.357C87.5357 523.536 87.5357 524.821 87.5357 526C87.5357 526.429 87.6429 526.75 87.6429 527.179C88.8215 527.286 89.7857 527.393 90.8572 527.071C90.8572 526.643 90.8572 526.214 90.8572 525.786C90.8572 524.714 90.8572 523.536 90.8572 522.464C90.8572 521.179 91.1786 520.857 92.3572 520.857C93.5357 520.857 94.8215 520.857 96 520.75C96.4286 520.75 96.8572 520.643 97.3929 520.643C97.3929 519.893 97.3929 519.25 97.3929 518.5C97.3929 517.429 97.2857 517.429 96.2143 517.429C94.8215 517.429 93.4286 517.429 92.0357 517.429C90.8572 517.429 90.6429 517.214 90.6429 516.036C90.6429 514.643 90.6429 513.25 90.6429 511.857C90.6429 511.536 90.5357 511.214 90.5357 510.786C89.4643 510.893 88.5 510.893 87.3215 510.893Z" fill="black"/>
<path d="M85.6072 522.571C84.75 522.571 84 522.571 83.25 522.571C82.5 522.571 81.8572 522.571 81.1072 522.571C79.6072 522.571 79.2857 522.25 79.2857 520.75C79.2857 519.571 79.2857 518.5 79.2857 517.321C79.2857 515.929 79.5 515.714 80.8929 515.714C82.0715 515.714 83.3572 515.714 84.5357 515.714C84.8572 515.714 85.1786 515.607 85.6072 515.607C85.6072 515.179 85.7143 514.75 85.7143 514.321C85.7143 513.143 85.7143 511.857 85.7143 510.679C85.7143 509.393 85.9286 509.179 87.2143 509.179C88.6072 509.179 89.8929 509.071 91.2857 509.071C92.1429 509.071 92.3572 509.286 92.4643 510.25C92.4643 511.536 92.4643 512.821 92.4643 514C92.4643 514.214 92.4643 514.429 92.4643 514.643C92.4643 515.607 92.5715 515.714 93.6429 515.714C95.0357 515.714 96.3215 515.714 97.7143 515.714C98.8929 515.714 99.1072 515.929 99.1072 517.107C99.1072 518.5 99.2143 520 99.2143 521.393C99.2143 522.25 98.8929 522.571 98.0357 522.571C96.6429 522.571 95.25 522.571 93.8572 522.571C92.5715 522.571 92.5715 522.571 92.5715 523.964C92.5715 525.143 92.5715 526.321 92.5715 527.5C92.5715 528.679 92.25 529 91.0715 529C89.7857 529 88.5 529 87.3215 529C86.1429 529 85.8215 528.571 85.8215 527.393C85.8215 526 85.8215 524.714 85.8215 523.321C85.7143 523.107 85.6072 523 85.6072 522.571ZM87.3215 510.893C87.3215 511.429 87.2143 511.75 87.3215 512.179C87.3215 513.25 87.3215 514.429 87.3215 515.5C87.3215 517.214 87.1072 517.429 85.5 517.429C84.3215 517.429 83.1429 517.429 82.0715 517.536C81.75 517.536 81.4286 517.643 81 517.643C81 518.714 80.7857 519.786 81.2143 520.75C81.5357 520.75 81.8572 520.857 82.0715 520.857C83.3572 520.857 84.6429 520.857 86.0357 520.857C87.3215 520.857 87.4286 521.071 87.5357 522.357C87.5357 523.536 87.5357 524.821 87.5357 526C87.5357 526.429 87.6429 526.75 87.6429 527.179C88.8215 527.286 89.7857 527.393 90.8572 527.071C90.8572 526.643 90.8572 526.214 90.8572 525.786C90.8572 524.714 90.8572 523.536 90.8572 522.464C90.8572 521.179 91.1786 520.857 92.3572 520.857C93.5357 520.857 94.8215 520.857 96 520.75C96.4286 520.75 96.8572 520.643 97.3929 520.643C97.3929 519.893 97.3929 519.25 97.3929 518.5C97.3929 517.429 97.2857 517.429 96.2143 517.429C94.8215 517.429 93.4286 517.429 92.0357 517.429C90.8572 517.429 90.6429 517.214 90.6429 516.036C90.6429 514.643 90.6429 513.25 90.6429 511.857C90.6429 511.536 90.5357 511.214 90.5357 510.786C89.4643 510.893 88.5 510.893 87.3215 510.893Z" stroke="black" stroke-width="0.3287" stroke-miterlimit="10"/>
<path d="M87.3214 510.893C88.5 510.893 89.4643 510.893 90.5357 510.893C90.5357 511.214 90.6429 511.536 90.6429 511.964C90.6429 513.357 90.6429 514.75 90.6429 516.143C90.6429 517.214 90.8571 517.429 91.9286 517.429C93.3214 517.429 94.7143 517.429 96.1071 517.429C97.1786 517.429 97.2857 517.536 97.2857 518.5C97.2857 519.143 97.2857 519.786 97.2857 520.643C96.8571 520.643 96.4286 520.643 96 520.643C94.8214 520.643 93.5357 520.643 92.3571 520.75C91.1786 520.75 90.8571 521.071 90.8571 522.357C90.8571 523.429 90.8571 524.607 90.8571 525.679C90.8571 526.107 90.8571 526.536 90.8571 526.964C89.7857 527.286 88.8214 527.179 87.6429 527.071C87.5357 526.75 87.4286 526.321 87.4286 526C87.4286 524.821 87.4286 523.536 87.4286 522.357C87.4286 521.071 87.2143 520.857 85.9286 520.857C84.6429 520.857 83.3571 520.857 81.9643 520.857C81.6429 520.857 81.4286 520.857 81.1071 520.75C80.7857 519.786 81 518.714 81 517.643C81.4286 517.643 81.75 517.536 82.0714 517.536C83.1429 517.429 84.3214 517.429 85.5 517.429C87.1071 517.429 87.3214 517.107 87.3214 515.5C87.3214 514.429 87.3214 513.25 87.3214 512.179C87.3214 511.857 87.3214 511.429 87.3214 510.893Z" fill="black"/>
<path d="M84.3214 521.5C83.4643 521.5 82.7143 521.5 81.9643 521.5C81.2143 521.5 80.5714 521.5 79.8214 521.5C78.3214 521.5 78 521.179 78 519.679C78 518.5 78 517.429 78 516.25C78 514.857 78.2143 514.643 79.6071 514.643C80.7857 514.643 82.0714 514.643 83.25 514.643C83.5714 514.643 83.8929 514.536 84.3214 514.536C84.3214 514.107 84.4286 513.679 84.4286 513.25C84.4286 512.071 84.4286 510.786 84.4286 509.607C84.4286 508.321 84.6429 508.107 85.9286 508.107C87.3214 508.107 88.6071 508 90 508C90.8571 508 91.0714 508.214 91.1786 509.179C91.1786 510.464 91.1786 511.75 91.1786 512.929C91.1786 513.143 91.1786 513.357 91.1786 513.571C91.1786 514.536 91.2857 514.643 92.3571 514.643C93.75 514.643 95.0357 514.643 96.4286 514.643C97.6071 514.643 97.8214 514.857 97.8214 516.036C97.8214 517.429 97.9286 518.929 97.9286 520.321C97.9286 521.179 97.6071 521.5 96.75 521.5C95.3571 521.5 93.9643 521.5 92.5714 521.5C91.2857 521.5 91.2857 521.5 91.2857 522.893C91.2857 524.071 91.2857 525.25 91.2857 526.429C91.2857 527.607 90.9643 527.929 89.7857 527.929C88.5 527.929 87.2143 527.929 86.0357 527.929C84.8571 527.929 84.5357 527.5 84.5357 526.321C84.5357 524.929 84.5357 523.643 84.5357 522.25C84.4286 522.036 84.3214 521.821 84.3214 521.5ZM86.0357 509.821C86.0357 510.357 85.9286 510.679 86.0357 511.107C86.0357 512.179 86.0357 513.357 86.0357 514.429C86.0357 516.036 85.8214 516.25 84.2143 516.357C83.0357 516.357 81.9643 516.357 80.7857 516.357C80.4643 516.357 80.1429 516.464 79.7143 516.464C79.7143 517.536 79.5 518.607 79.9286 519.571C80.25 519.571 80.5714 519.679 80.7857 519.679C82.0714 519.679 83.3571 519.679 84.75 519.679C86.0357 519.679 86.1429 519.893 86.25 521.179C86.25 522.357 86.25 523.643 86.25 524.821C86.25 525.25 86.3571 525.571 86.3571 526C87.5357 526.107 88.5 526.214 89.5714 525.893C89.5714 525.464 89.5714 525.036 89.5714 524.607C89.5714 523.536 89.5714 522.357 89.5714 521.286C89.5714 520 89.8929 519.679 91.0714 519.679C92.25 519.679 93.5357 519.679 94.7143 519.571C95.1429 519.571 95.5714 519.464 96.1071 519.464C96.1071 518.714 96.1071 518.071 96.1071 517.321C96.1071 516.25 96 516.25 94.9286 516.25C93.5357 516.25 92.1429 516.25 90.75 516.25C89.5714 516.25 89.4643 516.036 89.4643 514.964C89.4643 513.571 89.4643 512.179 89.4643 510.786C89.4643 510.464 89.3571 510.143 89.3571 509.714C88.1786 509.714 87.2143 509.821 86.0357 509.821Z" fill="black"/>
<path d="M84.3214 521.5C83.4643 521.5 82.7143 521.5 81.9643 521.5C81.2143 521.5 80.5714 521.5 79.8214 521.5C78.3214 521.5 78 521.179 78 519.679C78 518.5 78 517.429 78 516.25C78 514.857 78.2143 514.643 79.6071 514.643C80.7857 514.643 82.0714 514.643 83.25 514.643C83.5714 514.643 83.8929 514.536 84.3214 514.536C84.3214 514.107 84.4286 513.679 84.4286 513.25C84.4286 512.071 84.4286 510.786 84.4286 509.607C84.4286 508.321 84.6429 508.107 85.9286 508.107C87.3214 508.107 88.6071 508 90 508C90.8571 508 91.0714 508.214 91.1786 509.179C91.1786 510.464 91.1786 511.75 91.1786 512.929C91.1786 513.143 91.1786 513.357 91.1786 513.571C91.1786 514.536 91.2857 514.643 92.3571 514.643C93.75 514.643 95.0357 514.643 96.4286 514.643C97.6071 514.643 97.8214 514.857 97.8214 516.036C97.8214 517.429 97.9286 518.929 97.9286 520.321C97.9286 521.179 97.6071 521.5 96.75 521.5C95.3571 521.5 93.9643 521.5 92.5714 521.5C91.2857 521.5 91.2857 521.5 91.2857 522.893C91.2857 524.071 91.2857 525.25 91.2857 526.429C91.2857 527.607 90.9643 527.929 89.7857 527.929C88.5 527.929 87.2143 527.929 86.0357 527.929C84.8571 527.929 84.5357 527.5 84.5357 526.321C84.5357 524.929 84.5357 523.643 84.5357 522.25C84.4286 522.036 84.3214 521.821 84.3214 521.5ZM86.0357 509.821C86.0357 510.357 85.9286 510.679 86.0357 511.107C86.0357 512.179 86.0357 513.357 86.0357 514.429C86.0357 516.036 85.8214 516.25 84.2143 516.357C83.0357 516.357 81.9643 516.357 80.7857 516.357C80.4643 516.357 80.1429 516.464 79.7143 516.464C79.7143 517.536 79.5 518.607 79.9286 519.571C80.25 519.571 80.5714 519.679 80.7857 519.679C82.0714 519.679 83.3571 519.679 84.75 519.679C86.0357 519.679 86.1429 519.893 86.25 521.179C86.25 522.357 86.25 523.643 86.25 524.821C86.25 525.25 86.3571 525.571 86.3571 526C87.5357 526.107 88.5 526.214 89.5714 525.893C89.5714 525.464 89.5714 525.036 89.5714 524.607C89.5714 523.536 89.5714 522.357 89.5714 521.286C89.5714 520 89.8929 519.679 91.0714 519.679C92.25 519.679 93.5357 519.679 94.7143 519.571C95.1429 519.571 95.5714 519.464 96.1071 519.464C96.1071 518.714 96.1071 518.071 96.1071 517.321C96.1071 516.25 96 516.25 94.9286 516.25C93.5357 516.25 92.1429 516.25 90.75 516.25C89.5714 516.25 89.4643 516.036 89.4643 514.964C89.4643 513.571 89.4643 512.179 89.4643 510.786C89.4643 510.464 89.3571 510.143 89.3571 509.714C88.1786 509.714 87.2143 509.821 86.0357 509.821Z" stroke="black" stroke-width="0.3287" stroke-miterlimit="10"/>
<path d="M86.0357 509.821C87.2143 509.821 88.1786 509.821 89.25 509.821C89.25 510.143 89.3571 510.464 89.3571 510.893C89.3571 512.286 89.3571 513.679 89.3571 515.071C89.3571 516.143 89.5714 516.357 90.6429 516.357C92.0357 516.357 93.4286 516.357 94.8214 516.357C95.8929 516.357 96 516.464 96 517.429C96 518.071 96 518.714 96 519.571C95.4643 519.571 95.0357 519.679 94.6071 519.679C93.4286 519.679 92.1429 519.679 90.9643 519.786C89.7857 519.786 89.4643 520.107 89.4643 521.393C89.4643 522.464 89.4643 523.643 89.4643 524.714C89.4643 525.143 89.4643 525.571 89.4643 526C88.3929 526.321 87.4286 526.214 86.25 526.107C86.25 525.679 86.1429 525.357 86.1429 524.929C86.1429 523.75 86.1429 522.464 86.1429 521.286C86.1429 520 85.9286 519.786 84.6429 519.786C83.3571 519.786 82.0714 519.786 80.6786 519.786C80.3571 519.786 80.1429 519.786 79.8214 519.679C79.5 518.714 79.6071 517.643 79.6071 516.571C80.0357 516.571 80.3571 516.464 80.6786 516.464C81.9643 516.357 83.0357 516.357 84.2143 516.357C85.8214 516.357 86.0357 516.036 86.0357 514.429C86.0357 513.357 86.0357 512.179 86.0357 511.107C86.0357 510.679 86.0357 510.357 86.0357 509.821Z" fill="white"/>
<path d="M88.5 500C88.5 500 88.5 486.8 88.5 479.9C88.5 472.9 84.4 464 72.5 464C60.6 464 56.1 464 38.7 464C23.3 464 21 468.7 21 479.9C21 492.1 21 623 21 623" stroke="#9E1F63" stroke-width="1.9184" stroke-miterlimit="10" stroke-linecap="round" stroke-linejoin="round" stroke-dasharray="6.47 6.47"/>
</svg>
