<svg width="355" height="579" viewBox="0 0 355 579" fill="none" xmlns="http://www.w3.org/2000/svg">
<path opacity="0.4" d="M117 593C117 567.667 117 513 117 501C117 486 125 482 136 482C144.8 482 285 482 355 482" stroke="#9E1F63" stroke-width="1.9184" stroke-miterlimit="10" stroke-linecap="round" stroke-linejoin="round" stroke-dasharray="6.47 6.47"/>
<rect x="122.5" y="3.5" width="89" height="37" rx="6.5" fill="black" stroke="black" stroke-width="3"/>
<rect x="120.25" y="1.25" width="89.5" height="37.5" rx="6.75" fill="white" stroke="black" stroke-width="2.5"/>
<path d="M218 22L238 22" stroke="black" stroke-width="2.5" stroke-linecap="round" stroke-dasharray="3 4"/>
<path d="M311.787 23.4021H248.874C247.19 23.4021 245.861 22.0729 245.861 20.3893V17.5537C245.861 15.9587 247.19 14.541 248.874 14.541H311.787C313.471 14.541 314.8 15.8701 314.8 17.5537V20.3893C314.8 22.0729 313.471 23.4021 311.787 23.4021Z" fill="black" stroke="black" stroke-width="2" stroke-miterlimit="10" stroke-linecap="round" stroke-linejoin="round"/>
<path d="M311.787 32.2632H248.874C247.19 32.2632 245.861 30.934 245.861 29.2504V26.4149C245.861 24.7312 247.19 23.4021 248.874 23.4021H311.787C313.471 23.4021 314.8 24.7312 314.8 26.4149V29.2504C314.8 30.934 313.471 32.2632 311.787 32.2632Z" fill="black" stroke="black" stroke-width="2" stroke-miterlimit="10" stroke-linecap="round" stroke-linejoin="round"/>
<path d="M267.836 14.541H259.596V32.2632H267.836V14.541Z" fill="black" stroke="black" stroke-width="2.0621" stroke-miterlimit="10" stroke-linecap="round" stroke-linejoin="round" stroke-dasharray="6.83 6.83"/>
<path d="M299.027 14.541H290.787V32.2632H299.027V14.541Z" fill="black" stroke="black" stroke-width="2.0621" stroke-miterlimit="10" stroke-linecap="round" stroke-linejoin="round" stroke-dasharray="6.83 6.83"/>
<path d="M309.927 21.6299H247.013C245.329 21.6299 244 20.3007 244 18.6171V15.7815C244 14.1865 245.329 12.7688 247.013 12.7688H309.927C311.61 12.7688 312.939 14.0979 312.939 15.7815V18.6171C312.939 20.3007 311.61 21.6299 309.927 21.6299Z" fill="#FF7171" stroke="black" stroke-width="1.8" stroke-miterlimit="10" stroke-linecap="round" stroke-linejoin="round"/>
<path d="M309.927 30.491H247.013C245.329 30.491 244 29.1618 244 27.4782V24.6426C244 22.959 245.329 21.6299 247.013 21.6299H309.927C311.61 21.6299 312.939 22.959 312.939 24.6426V27.4782C312.939 29.1618 311.61 30.491 309.927 30.491Z" fill="#FF7171" stroke="black" stroke-width="1.8" stroke-miterlimit="10" stroke-linecap="round" stroke-linejoin="round"/>
<path d="M265.976 12.7688H257.735V30.491H265.976V12.7688Z" fill="black" stroke="black" stroke-width="2.0621" stroke-miterlimit="10" stroke-linecap="round" stroke-linejoin="round" stroke-dasharray="6.83 6.83"/>
<path d="M297.167 12.7688H288.926V30.491H297.167V12.7688Z" fill="black" stroke="black" stroke-width="2.0621" stroke-miterlimit="10" stroke-linecap="round" stroke-linejoin="round" stroke-dasharray="6.83 6.83"/>
<circle cx="278.115" cy="19.4146" r="7.80416" fill="white" stroke="black" stroke-width="3"/>
<circle cx="277.229" cy="18.5285" r="7.80416" fill="white" stroke="black" stroke-width="3"/>
<path d="M277.672 10.5535C277.672 8.3382 279.799 5.23682 284.761 5.23682C289.723 5.23682 293.031 9.66737 293.179 12.3257" stroke="black" stroke-width="2.5"/>
<path d="M277.229 18.0854V14.0979" stroke="black" stroke-width="2" stroke-linecap="round"/>
<path d="M277.672 18.0854L281.66 18.0854" stroke="black" stroke-width="2" stroke-linecap="round"/>
<path d="M166.458 440.955C166.458 437.479 163.764 434.647 160.458 434.647C157.151 434.647 154.458 437.479 154.458 440.955C154.458 444.431 157.151 447.263 160.458 447.263C163.764 447.263 166.458 444.431 166.458 440.955Z" fill="white"/>
<path d="M180.663 440.955C180.663 437.479 177.969 434.647 174.662 434.647C171.356 434.647 168.662 437.479 168.662 440.955C168.662 444.431 171.234 447.263 174.54 447.263C177.969 447.263 180.663 444.431 180.663 440.955Z" fill="white"/>
<path d="M167.561 445.461C167.316 445.719 167.071 446.105 166.826 446.362C164.499 448.937 161.683 449.709 158.499 448.937C155.315 448.165 153.111 446.105 152.254 442.758C151.03 438.123 154.213 433.231 158.744 432.33C162.05 431.815 164.744 432.845 166.949 435.42C167.071 435.548 167.193 435.806 167.193 435.806C168.173 434.905 168.908 434.004 169.887 433.36C174.663 429.884 181.276 432.587 182.745 438.381C183.847 442.758 181.276 447.392 176.99 448.551C173.561 449.452 170.5 448.551 168.051 445.719C167.928 445.59 167.806 445.461 167.683 445.332C167.683 445.461 167.683 445.461 167.561 445.461ZM174.663 434.518C174.051 434.647 173.439 434.647 172.949 434.905C170.377 435.677 168.663 438.381 168.908 440.955C169.275 443.788 171.234 445.719 174.051 446.105C176.622 446.362 179.194 444.817 180.051 442.243C181.276 438.638 178.459 434.647 174.663 434.518ZM160.458 446.491C163.642 446.491 166.214 443.916 166.214 440.827C166.214 437.608 163.52 434.905 160.458 434.905C157.275 434.905 154.703 437.608 154.703 440.827C154.703 443.916 157.275 446.491 160.458 446.491Z" fill="black"/>
<path d="M174.785 434.132C176.377 434.132 177.601 435.42 177.724 437.093C177.724 438.767 176.377 440.183 174.662 440.183C173.07 440.183 171.723 438.767 171.723 437.222C171.846 435.42 173.193 434.004 174.785 434.132Z" fill="black"/>
<path d="M160.58 434.132C162.172 434.132 163.519 435.42 163.519 437.093C163.519 438.767 162.172 440.183 160.58 440.183C158.988 440.183 157.641 438.767 157.641 437.222C157.641 435.548 158.988 434.132 160.58 434.132Z" fill="black"/>
<path d="M282.285 512.142C276.328 506.765 268.476 504.345 260.353 505.152C247.627 506.765 237.338 516.713 235.713 529.35C234.63 538.223 237.609 546.827 243.836 553.011C246.273 555.431 247.627 558.388 247.898 561.615C246.002 562.421 244.919 564.303 244.919 566.454C244.919 568.068 245.461 569.412 246.544 570.219C245.461 571.294 244.648 572.638 244.648 574.252C244.648 575.865 245.19 577.209 246.273 578.016C245.19 579.091 244.648 580.436 244.648 581.78C244.648 584.738 247.085 587.158 250.064 587.158H276.599C279.577 587.158 282.014 584.738 282.014 581.78C282.014 580.167 281.472 578.823 280.389 578.016C281.472 576.94 282.014 575.596 282.014 574.252C282.014 572.638 281.472 571.294 280.389 570.488C281.472 569.412 282.014 568.068 282.014 566.723C282.014 564.572 280.66 562.69 279.036 561.884C279.306 558.657 280.66 555.7 283.097 553.28C288.512 547.902 291.491 540.912 291.491 533.383C291.762 525.048 288.242 517.52 282.285 512.142Z" fill="white"/>
<path d="M282.285 512.142C276.328 506.765 268.476 504.345 260.353 505.152C247.627 506.765 237.338 516.713 235.713 529.35C234.63 538.223 237.609 546.827 243.836 553.011C246.273 555.431 247.627 558.388 247.898 561.615C246.002 562.421 244.919 564.303 244.919 566.454C244.919 568.068 245.461 569.412 246.544 570.219C245.461 571.294 244.648 572.638 244.648 574.252C244.648 575.865 245.19 577.209 246.273 578.016C245.19 579.091 244.648 580.436 244.648 581.78C244.648 584.738 247.085 587.158 250.064 587.158H276.599C279.577 587.158 282.014 584.738 282.014 581.78C282.014 580.167 281.472 578.823 280.389 578.016C281.472 576.94 282.014 575.596 282.014 574.252C282.014 572.638 281.472 571.294 280.389 570.488C281.472 569.412 282.014 568.068 282.014 566.723C282.014 564.572 280.66 562.69 279.036 561.884C279.306 558.657 280.66 555.7 283.097 553.28C288.512 547.902 291.491 540.912 291.491 533.383C291.762 525.048 288.242 517.52 282.285 512.142Z" stroke="white" stroke-width="0.5386" stroke-miterlimit="10"/>
<path d="M282.285 512.142C276.328 506.765 268.476 504.345 260.353 505.152C247.627 506.765 237.338 516.713 235.713 529.35C234.63 538.223 237.609 546.827 243.836 553.011C246.273 555.431 247.627 558.388 247.898 561.615C246.002 562.421 244.919 564.303 244.919 566.454C244.919 568.068 245.461 569.412 246.544 570.219C245.461 571.294 244.648 572.638 244.648 574.252C244.648 575.865 245.19 577.209 246.273 578.016C245.19 579.091 244.648 580.436 244.648 581.78C244.648 584.738 247.085 587.158 250.064 587.158H276.599C279.577 587.158 282.014 584.738 282.014 581.78C282.014 580.167 281.472 578.823 280.389 578.016C281.472 576.94 282.014 575.596 282.014 574.252C282.014 572.638 281.472 571.294 280.389 570.488C281.472 569.412 282.014 568.068 282.014 566.723C282.014 564.572 280.66 562.69 279.036 561.884C279.306 558.657 280.66 555.7 283.097 553.28C288.512 547.902 291.491 540.912 291.491 533.383C291.762 525.048 288.242 517.52 282.285 512.142ZM276.869 584.2H250.335C248.981 584.2 247.898 583.124 247.898 581.78C247.898 580.436 248.981 579.36 250.335 579.36H276.869C278.223 579.36 279.306 580.436 279.306 581.78C279.306 583.393 278.223 584.2 276.869 584.2ZM276.869 576.672H250.335C248.981 576.672 247.898 575.596 247.898 574.252C247.898 572.907 248.981 571.832 250.335 571.832H276.869C278.223 571.832 279.306 572.907 279.306 574.252C279.306 575.596 278.223 576.672 276.869 576.672ZM276.869 568.874H250.335C248.981 568.874 247.898 567.799 247.898 566.454C247.898 565.11 248.981 564.035 250.335 564.035H276.869C278.223 564.035 279.306 565.11 279.306 566.454C279.306 567.799 278.223 568.874 276.869 568.874ZM280.931 550.86C278.223 553.549 276.328 557.313 276.057 561.077H250.876C250.605 557.313 248.71 553.549 245.732 550.591C240.045 545.214 237.609 537.416 238.421 529.619C240.045 518.595 249.522 509.454 260.624 508.378C267.934 507.572 274.703 509.723 280.119 514.562C285.534 519.402 288.512 526.124 288.512 533.114C288.512 539.836 285.805 546.02 280.931 550.86Z" fill="black"/>
<path d="M282.285 512.142C276.328 506.765 268.476 504.345 260.353 505.152C247.627 506.765 237.338 516.713 235.713 529.35C234.63 538.223 237.609 546.827 243.836 553.011C246.273 555.431 247.627 558.388 247.898 561.615C246.002 562.421 244.919 564.303 244.919 566.454C244.919 568.068 245.461 569.412 246.544 570.219C245.461 571.294 244.648 572.638 244.648 574.252C244.648 575.865 245.19 577.209 246.273 578.016C245.19 579.091 244.648 580.436 244.648 581.78C244.648 584.738 247.085 587.158 250.064 587.158H276.599C279.577 587.158 282.014 584.738 282.014 581.78C282.014 580.167 281.472 578.823 280.389 578.016C281.472 576.94 282.014 575.596 282.014 574.252C282.014 572.638 281.472 571.294 280.389 570.488C281.472 569.412 282.014 568.068 282.014 566.723C282.014 564.572 280.66 562.69 279.036 561.884C279.306 558.657 280.66 555.7 283.097 553.28C288.512 547.902 291.491 540.912 291.491 533.383C291.762 525.048 288.242 517.52 282.285 512.142ZM276.869 584.2H250.335C248.981 584.2 247.898 583.124 247.898 581.78C247.898 580.436 248.981 579.36 250.335 579.36H276.869C278.223 579.36 279.306 580.436 279.306 581.78C279.306 583.393 278.223 584.2 276.869 584.2ZM276.869 576.672H250.335C248.981 576.672 247.898 575.596 247.898 574.252C247.898 572.907 248.981 571.832 250.335 571.832H276.869C278.223 571.832 279.306 572.907 279.306 574.252C279.306 575.596 278.223 576.672 276.869 576.672ZM276.869 568.874H250.335C248.981 568.874 247.898 567.799 247.898 566.454C247.898 565.11 248.981 564.035 250.335 564.035H276.869C278.223 564.035 279.306 565.11 279.306 566.454C279.306 567.799 278.223 568.874 276.869 568.874ZM280.931 550.86C278.223 553.549 276.328 557.313 276.057 561.077H250.876C250.605 557.313 248.71 553.549 245.732 550.591C240.045 545.214 237.609 537.416 238.421 529.619C240.045 518.595 249.522 509.454 260.624 508.378C267.934 507.572 274.703 509.723 280.119 514.562C285.534 519.402 288.512 526.124 288.512 533.114C288.512 539.836 285.805 546.02 280.931 550.86Z" stroke="black" stroke-width="0.5386" stroke-miterlimit="10"/>
<path d="M266.039 551.398C264.414 548.709 264.414 544.407 265.227 541.449C265.497 539.567 265.768 537.416 268.476 537.147C270.371 536.879 271.183 538.223 270.642 539.836C269.83 542.256 264.956 541.449 262.79 541.449C258.999 541.449 256.021 540.912 253.584 537.954C251.688 535.803 248.71 539.03 250.605 541.181C255.208 546.289 263.331 546.558 269.559 545.751C274.974 544.945 276.599 540.643 274.433 535.803C272.537 531.77 265.768 531.77 263.06 534.997C259.541 539.298 259.811 548.978 262.519 553.817C263.873 556.237 267.663 553.817 266.039 551.398Z" fill="black"/>
<path d="M61 601.5C61 601.5 61 567.7 61 557.1C61 546.5 68.5 542.4 77.5 542.4C86.5 542.4 130.6 542.4 153.5 542.4C168.1 542.4 168.4 531.1 168.4 525.7C168.4 520.3 168.4 461.9 168.4 461.9" stroke="black" stroke-width="1.9184" stroke-miterlimit="10" stroke-linecap="round" stroke-linejoin="round" stroke-dasharray="6.47 6.47"/>
<path d="M65.6072 499.571C64.75 499.571 64 499.571 63.25 499.571C62.5 499.571 61.8572 499.571 61.1072 499.571C59.6072 499.571 59.2857 499.25 59.2857 497.75C59.2857 496.571 59.2857 495.5 59.2857 494.321C59.2857 492.929 59.5 492.714 60.8929 492.714C62.0715 492.714 63.3572 492.714 64.5357 492.714C64.8572 492.714 65.1786 492.607 65.6072 492.607C65.6072 492.179 65.7143 491.75 65.7143 491.321C65.7143 490.143 65.7143 488.857 65.7143 487.679C65.7143 486.393 65.9286 486.179 67.2143 486.179C68.6072 486.179 69.8929 486.071 71.2857 486.071C72.1429 486.071 72.3572 486.286 72.4643 487.25C72.4643 488.536 72.4643 489.821 72.4643 491C72.4643 491.214 72.4643 491.429 72.4643 491.643C72.4643 492.607 72.5715 492.714 73.6429 492.714C75.0357 492.714 76.3215 492.714 77.7143 492.714C78.8929 492.714 79.1072 492.929 79.1072 494.107C79.1072 495.5 79.2143 497 79.2143 498.393C79.2143 499.25 78.8929 499.571 78.0357 499.571C76.6429 499.571 75.25 499.571 73.8572 499.571C72.5715 499.571 72.5715 499.571 72.5715 500.964C72.5715 502.143 72.5715 503.321 72.5715 504.5C72.5715 505.679 72.25 506 71.0715 506C69.7857 506 68.5 506 67.3215 506C66.1429 506 65.8215 505.571 65.8215 504.393C65.8215 503 65.8215 501.714 65.8215 500.321C65.7143 500.107 65.6072 500 65.6072 499.571ZM67.3215 487.893C67.3215 488.429 67.2143 488.75 67.3215 489.179C67.3215 490.25 67.3215 491.429 67.3215 492.5C67.3215 494.214 67.1072 494.429 65.5 494.429C64.3215 494.429 63.1429 494.429 62.0715 494.536C61.75 494.536 61.4286 494.643 61 494.643C61 495.714 60.7857 496.786 61.2143 497.75C61.5357 497.75 61.8572 497.857 62.0715 497.857C63.3572 497.857 64.6429 497.857 66.0357 497.857C67.3215 497.857 67.4286 498.071 67.5357 499.357C67.5357 500.536 67.5357 501.821 67.5357 503C67.5357 503.429 67.6429 503.75 67.6429 504.179C68.8215 504.286 69.7857 504.393 70.8572 504.071C70.8572 503.643 70.8572 503.214 70.8572 502.786C70.8572 501.714 70.8572 500.536 70.8572 499.464C70.8572 498.179 71.1786 497.857 72.3572 497.857C73.5357 497.857 74.8215 497.857 76 497.75C76.4286 497.75 76.8572 497.643 77.3929 497.643C77.3929 496.893 77.3929 496.25 77.3929 495.5C77.3929 494.429 77.2857 494.429 76.2143 494.429C74.8215 494.429 73.4286 494.429 72.0357 494.429C70.8572 494.429 70.6429 494.214 70.6429 493.036C70.6429 491.643 70.6429 490.25 70.6429 488.857C70.6429 488.536 70.5357 488.214 70.5357 487.786C69.4643 487.893 68.5 487.893 67.3215 487.893Z" fill="black"/>
<path d="M65.6072 499.571C64.75 499.571 64 499.571 63.25 499.571C62.5 499.571 61.8572 499.571 61.1072 499.571C59.6072 499.571 59.2857 499.25 59.2857 497.75C59.2857 496.571 59.2857 495.5 59.2857 494.321C59.2857 492.929 59.5 492.714 60.8929 492.714C62.0715 492.714 63.3572 492.714 64.5357 492.714C64.8572 492.714 65.1786 492.607 65.6072 492.607C65.6072 492.179 65.7143 491.75 65.7143 491.321C65.7143 490.143 65.7143 488.857 65.7143 487.679C65.7143 486.393 65.9286 486.179 67.2143 486.179C68.6072 486.179 69.8929 486.071 71.2857 486.071C72.1429 486.071 72.3572 486.286 72.4643 487.25C72.4643 488.536 72.4643 489.821 72.4643 491C72.4643 491.214 72.4643 491.429 72.4643 491.643C72.4643 492.607 72.5715 492.714 73.6429 492.714C75.0357 492.714 76.3215 492.714 77.7143 492.714C78.8929 492.714 79.1072 492.929 79.1072 494.107C79.1072 495.5 79.2143 497 79.2143 498.393C79.2143 499.25 78.8929 499.571 78.0357 499.571C76.6429 499.571 75.25 499.571 73.8572 499.571C72.5715 499.571 72.5715 499.571 72.5715 500.964C72.5715 502.143 72.5715 503.321 72.5715 504.5C72.5715 505.679 72.25 506 71.0715 506C69.7857 506 68.5 506 67.3215 506C66.1429 506 65.8215 505.571 65.8215 504.393C65.8215 503 65.8215 501.714 65.8215 500.321C65.7143 500.107 65.6072 500 65.6072 499.571ZM67.3215 487.893C67.3215 488.429 67.2143 488.75 67.3215 489.179C67.3215 490.25 67.3215 491.429 67.3215 492.5C67.3215 494.214 67.1072 494.429 65.5 494.429C64.3215 494.429 63.1429 494.429 62.0715 494.536C61.75 494.536 61.4286 494.643 61 494.643C61 495.714 60.7857 496.786 61.2143 497.75C61.5357 497.75 61.8572 497.857 62.0715 497.857C63.3572 497.857 64.6429 497.857 66.0357 497.857C67.3215 497.857 67.4286 498.071 67.5357 499.357C67.5357 500.536 67.5357 501.821 67.5357 503C67.5357 503.429 67.6429 503.75 67.6429 504.179C68.8215 504.286 69.7857 504.393 70.8572 504.071C70.8572 503.643 70.8572 503.214 70.8572 502.786C70.8572 501.714 70.8572 500.536 70.8572 499.464C70.8572 498.179 71.1786 497.857 72.3572 497.857C73.5357 497.857 74.8215 497.857 76 497.75C76.4286 497.75 76.8572 497.643 77.3929 497.643C77.3929 496.893 77.3929 496.25 77.3929 495.5C77.3929 494.429 77.2857 494.429 76.2143 494.429C74.8215 494.429 73.4286 494.429 72.0357 494.429C70.8572 494.429 70.6429 494.214 70.6429 493.036C70.6429 491.643 70.6429 490.25 70.6429 488.857C70.6429 488.536 70.5357 488.214 70.5357 487.786C69.4643 487.893 68.5 487.893 67.3215 487.893Z" stroke="black" stroke-width="0.3287" stroke-miterlimit="10"/>
<path d="M67.3214 487.893C68.5 487.893 69.4643 487.893 70.5357 487.893C70.5357 488.214 70.6429 488.536 70.6429 488.964C70.6429 490.357 70.6429 491.75 70.6429 493.143C70.6429 494.214 70.8571 494.429 71.9286 494.429C73.3214 494.429 74.7143 494.429 76.1071 494.429C77.1786 494.429 77.2857 494.536 77.2857 495.5C77.2857 496.143 77.2857 496.786 77.2857 497.643C76.8571 497.643 76.4286 497.643 76 497.643C74.8214 497.643 73.5357 497.643 72.3571 497.75C71.1786 497.75 70.8571 498.071 70.8571 499.357C70.8571 500.429 70.8571 501.607 70.8571 502.679C70.8571 503.107 70.8571 503.536 70.8571 503.964C69.7857 504.286 68.8214 504.179 67.6429 504.071C67.5357 503.75 67.4286 503.321 67.4286 503C67.4286 501.821 67.4286 500.536 67.4286 499.357C67.4286 498.071 67.2143 497.857 65.9286 497.857C64.6429 497.857 63.3571 497.857 61.9643 497.857C61.6429 497.857 61.4286 497.857 61.1071 497.75C60.7857 496.786 61 495.714 61 494.643C61.4286 494.643 61.75 494.536 62.0714 494.536C63.1429 494.429 64.3214 494.429 65.5 494.429C67.1071 494.429 67.3214 494.107 67.3214 492.5C67.3214 491.429 67.3214 490.25 67.3214 489.179C67.3214 488.857 67.3214 488.429 67.3214 487.893Z" fill="black"/>
<path d="M64.3214 498.5C63.4643 498.5 62.7143 498.5 61.9643 498.5C61.2143 498.5 60.5714 498.5 59.8214 498.5C58.3214 498.5 58 498.179 58 496.679C58 495.5 58 494.429 58 493.25C58 491.857 58.2143 491.643 59.6071 491.643C60.7857 491.643 62.0714 491.643 63.25 491.643C63.5714 491.643 63.8929 491.536 64.3214 491.536C64.3214 491.107 64.4286 490.679 64.4286 490.25C64.4286 489.071 64.4286 487.786 64.4286 486.607C64.4286 485.321 64.6429 485.107 65.9286 485.107C67.3214 485.107 68.6071 485 70 485C70.8571 485 71.0714 485.214 71.1786 486.179C71.1786 487.464 71.1786 488.75 71.1786 489.929C71.1786 490.143 71.1786 490.357 71.1786 490.571C71.1786 491.536 71.2857 491.643 72.3571 491.643C73.75 491.643 75.0357 491.643 76.4286 491.643C77.6071 491.643 77.8214 491.857 77.8214 493.036C77.8214 494.429 77.9286 495.929 77.9286 497.321C77.9286 498.179 77.6071 498.5 76.75 498.5C75.3571 498.5 73.9643 498.5 72.5714 498.5C71.2857 498.5 71.2857 498.5 71.2857 499.893C71.2857 501.071 71.2857 502.25 71.2857 503.429C71.2857 504.607 70.9643 504.929 69.7857 504.929C68.5 504.929 67.2143 504.929 66.0357 504.929C64.8571 504.929 64.5357 504.5 64.5357 503.321C64.5357 501.929 64.5357 500.643 64.5357 499.25C64.4286 499.036 64.3214 498.821 64.3214 498.5ZM66.0357 486.821C66.0357 487.357 65.9286 487.679 66.0357 488.107C66.0357 489.179 66.0357 490.357 66.0357 491.429C66.0357 493.036 65.8214 493.25 64.2143 493.357C63.0357 493.357 61.9643 493.357 60.7857 493.357C60.4643 493.357 60.1429 493.464 59.7143 493.464C59.7143 494.536 59.5 495.607 59.9286 496.571C60.25 496.571 60.5714 496.679 60.7857 496.679C62.0714 496.679 63.3571 496.679 64.75 496.679C66.0357 496.679 66.1429 496.893 66.25 498.179C66.25 499.357 66.25 500.643 66.25 501.821C66.25 502.25 66.3571 502.571 66.3571 503C67.5357 503.107 68.5 503.214 69.5714 502.893C69.5714 502.464 69.5714 502.036 69.5714 501.607C69.5714 500.536 69.5714 499.357 69.5714 498.286C69.5714 497 69.8929 496.679 71.0714 496.679C72.25 496.679 73.5357 496.679 74.7143 496.571C75.1429 496.571 75.5714 496.464 76.1071 496.464C76.1071 495.714 76.1071 495.071 76.1071 494.321C76.1071 493.25 76 493.25 74.9286 493.25C73.5357 493.25 72.1429 493.25 70.75 493.25C69.5714 493.25 69.4643 493.036 69.4643 491.964C69.4643 490.571 69.4643 489.179 69.4643 487.786C69.4643 487.464 69.3571 487.143 69.3571 486.714C68.1786 486.714 67.2143 486.821 66.0357 486.821Z" fill="black"/>
<path d="M64.3214 498.5C63.4643 498.5 62.7143 498.5 61.9643 498.5C61.2143 498.5 60.5714 498.5 59.8214 498.5C58.3214 498.5 58 498.179 58 496.679C58 495.5 58 494.429 58 493.25C58 491.857 58.2143 491.643 59.6071 491.643C60.7857 491.643 62.0714 491.643 63.25 491.643C63.5714 491.643 63.8929 491.536 64.3214 491.536C64.3214 491.107 64.4286 490.679 64.4286 490.25C64.4286 489.071 64.4286 487.786 64.4286 486.607C64.4286 485.321 64.6429 485.107 65.9286 485.107C67.3214 485.107 68.6071 485 70 485C70.8571 485 71.0714 485.214 71.1786 486.179C71.1786 487.464 71.1786 488.75 71.1786 489.929C71.1786 490.143 71.1786 490.357 71.1786 490.571C71.1786 491.536 71.2857 491.643 72.3571 491.643C73.75 491.643 75.0357 491.643 76.4286 491.643C77.6071 491.643 77.8214 491.857 77.8214 493.036C77.8214 494.429 77.9286 495.929 77.9286 497.321C77.9286 498.179 77.6071 498.5 76.75 498.5C75.3571 498.5 73.9643 498.5 72.5714 498.5C71.2857 498.5 71.2857 498.5 71.2857 499.893C71.2857 501.071 71.2857 502.25 71.2857 503.429C71.2857 504.607 70.9643 504.929 69.7857 504.929C68.5 504.929 67.2143 504.929 66.0357 504.929C64.8571 504.929 64.5357 504.5 64.5357 503.321C64.5357 501.929 64.5357 500.643 64.5357 499.25C64.4286 499.036 64.3214 498.821 64.3214 498.5ZM66.0357 486.821C66.0357 487.357 65.9286 487.679 66.0357 488.107C66.0357 489.179 66.0357 490.357 66.0357 491.429C66.0357 493.036 65.8214 493.25 64.2143 493.357C63.0357 493.357 61.9643 493.357 60.7857 493.357C60.4643 493.357 60.1429 493.464 59.7143 493.464C59.7143 494.536 59.5 495.607 59.9286 496.571C60.25 496.571 60.5714 496.679 60.7857 496.679C62.0714 496.679 63.3571 496.679 64.75 496.679C66.0357 496.679 66.1429 496.893 66.25 498.179C66.25 499.357 66.25 500.643 66.25 501.821C66.25 502.25 66.3571 502.571 66.3571 503C67.5357 503.107 68.5 503.214 69.5714 502.893C69.5714 502.464 69.5714 502.036 69.5714 501.607C69.5714 500.536 69.5714 499.357 69.5714 498.286C69.5714 497 69.8929 496.679 71.0714 496.679C72.25 496.679 73.5357 496.679 74.7143 496.571C75.1429 496.571 75.5714 496.464 76.1071 496.464C76.1071 495.714 76.1071 495.071 76.1071 494.321C76.1071 493.25 76 493.25 74.9286 493.25C73.5357 493.25 72.1429 493.25 70.75 493.25C69.5714 493.25 69.4643 493.036 69.4643 491.964C69.4643 490.571 69.4643 489.179 69.4643 487.786C69.4643 487.464 69.3571 487.143 69.3571 486.714C68.1786 486.714 67.2143 486.821 66.0357 486.821Z" stroke="black" stroke-width="0.3287" stroke-miterlimit="10"/>
<path d="M66.0357 486.821C67.2143 486.821 68.1786 486.821 69.25 486.821C69.25 487.143 69.3571 487.464 69.3571 487.893C69.3571 489.286 69.3571 490.679 69.3571 492.071C69.3571 493.143 69.5714 493.357 70.6429 493.357C72.0357 493.357 73.4286 493.357 74.8214 493.357C75.8929 493.357 76 493.464 76 494.429C76 495.071 76 495.714 76 496.571C75.4643 496.571 75.0357 496.679 74.6071 496.679C73.4286 496.679 72.1429 496.679 70.9643 496.786C69.7857 496.786 69.4643 497.107 69.4643 498.393C69.4643 499.464 69.4643 500.643 69.4643 501.714C69.4643 502.143 69.4643 502.571 69.4643 503C68.3929 503.321 67.4286 503.214 66.25 503.107C66.25 502.679 66.1429 502.357 66.1429 501.929C66.1429 500.75 66.1429 499.464 66.1429 498.286C66.1429 497 65.9286 496.786 64.6429 496.786C63.3571 496.786 62.0714 496.786 60.6786 496.786C60.3571 496.786 60.1429 496.786 59.8214 496.679C59.5 495.714 59.6071 494.643 59.6071 493.571C60.0357 493.571 60.3571 493.464 60.6786 493.464C61.9643 493.357 63.0357 493.357 64.2143 493.357C65.8214 493.357 66.0357 493.036 66.0357 491.429C66.0357 490.357 66.0357 489.179 66.0357 488.107C66.0357 487.679 66.0357 487.357 66.0357 486.821Z" fill="white"/>
<path d="M68.5 477C68.5 477 68.5 463.8 68.5 456.9C68.5 449.9 64.4 441 52.5 441C40.6 441 36.1 441 18.7 441C3.3 441 1 445.7 1 456.9C1 469.1 1 600 1 600" stroke="#9E1F63" stroke-width="1.9184" stroke-miterlimit="10" stroke-linecap="round" stroke-linejoin="round" stroke-dasharray="6.47 6.47"/>
</svg>
