<svg width="375" height="667" viewBox="0 0 375 667" fill="none" xmlns="http://www.w3.org/2000/svg">
<path opacity="0.4" d="M156 667C156 641.667 156 458.184 156 446.184C156 431.184 164 427.184 175 427.184C183.8 427.184 324 427.184 394 427.184" stroke="#9E1F63" stroke-width="1.9184" stroke-miterlimit="10" stroke-linecap="round" stroke-linejoin="round" stroke-dasharray="6.47 6.47"/>
<path d="M-1 539C13.0496 539 279.808 539 286.463 539C296.782 539 301 532.563 301 524.462C301 515.581 301 440.824 301 402" stroke="#9E1F63" stroke-width="1.9184" stroke-miterlimit="10" stroke-linecap="round" stroke-linejoin="round" stroke-dasharray="6.47 6.47"/>
<path d="M206.458 387.139C206.458 383.663 203.764 380.831 200.458 380.831C197.151 380.831 194.458 383.663 194.458 387.139C194.458 390.615 197.151 393.447 200.458 393.447C203.764 393.447 206.458 390.615 206.458 387.139Z" fill="white"/>
<path d="M220.663 387.139C220.663 383.663 217.969 380.831 214.662 380.831C211.356 380.831 208.662 383.663 208.662 387.139C208.662 390.615 211.234 393.447 214.54 393.447C217.969 393.447 220.663 390.615 220.663 387.139Z" fill="white"/>
<path d="M207.561 391.645C207.316 391.902 207.071 392.289 206.826 392.546C204.499 395.121 201.683 395.893 198.499 395.121C195.315 394.348 193.111 392.289 192.254 388.941C191.03 384.307 194.213 379.415 198.744 378.514C202.05 377.999 204.744 379.029 206.949 381.603C207.071 381.732 207.193 381.99 207.193 381.99C208.173 381.088 208.908 380.187 209.887 379.544C214.663 376.068 221.276 378.771 222.745 384.564C223.847 388.941 221.276 393.576 216.99 394.735C213.561 395.636 210.5 394.735 208.051 391.902C207.928 391.774 207.806 391.645 207.683 391.516C207.683 391.645 207.683 391.645 207.561 391.645ZM214.663 380.702C214.051 380.831 213.439 380.831 212.949 381.088C210.377 381.861 208.663 384.564 208.908 387.139C209.275 389.971 211.234 391.902 214.051 392.289C216.622 392.546 219.194 391.001 220.051 388.426C221.276 384.822 218.459 380.831 214.663 380.702ZM200.458 392.675C203.642 392.675 206.214 390.1 206.214 387.01C206.214 383.792 203.52 381.088 200.458 381.088C197.275 381.088 194.703 383.792 194.703 387.01C194.703 390.1 197.275 392.675 200.458 392.675Z" fill="black"/>
<path d="M214.785 380.316C216.377 380.316 217.601 381.603 217.724 383.277C217.724 384.951 216.377 386.367 214.662 386.367C213.07 386.367 211.723 384.951 211.723 383.406C211.846 381.603 213.193 380.187 214.785 380.316Z" fill="black"/>
<path d="M200.58 380.316C202.172 380.316 203.519 381.603 203.519 383.277C203.519 384.951 202.172 386.367 200.58 386.367C198.988 386.367 197.641 384.951 197.641 383.406C197.641 381.732 198.988 380.316 200.58 380.316Z" fill="black"/>
<path d="M68.1292 27.378C65.3119 24.8347 61.5983 23.6903 57.7566 24.0718C51.7379 24.8347 46.8717 29.5397 46.1034 35.5163C45.5911 39.7126 46.9998 43.7818 49.9451 46.7065C51.0976 47.851 51.7379 49.2498 51.8659 50.7757C50.9695 51.1572 50.4573 52.0473 50.4573 53.0646C50.4573 53.8276 50.7134 54.4634 51.2257 54.8449C50.7134 55.3535 50.3293 55.9893 50.3293 56.7523C50.3293 57.5153 50.5854 58.1511 51.0976 58.5326C50.5854 59.0412 50.3293 59.677 50.3293 60.3128C50.3293 61.7116 51.4818 62.856 52.8904 62.856H65.44C66.8486 62.856 68.0011 61.7116 68.0011 60.3128C68.0011 59.5498 67.745 58.914 67.2328 58.5326C67.745 58.0239 68.0011 57.3881 68.0011 56.7523C68.0011 55.9893 67.745 55.3535 67.2328 54.972C67.745 54.4634 68.0011 53.8276 68.0011 53.1918C68.0011 52.1745 67.3608 51.2843 66.5925 50.9029C66.7206 49.3769 67.3608 47.9781 68.5134 46.8337C71.0745 44.2905 72.4831 40.9843 72.4831 37.4237C72.6112 33.4817 70.9464 29.9212 68.1292 27.378Z" fill="white"/>
<path d="M68.1292 27.378C65.3119 24.8347 61.5983 23.6903 57.7566 24.0718C51.7379 24.8347 46.8717 29.5397 46.1034 35.5163C45.5911 39.7126 46.9998 43.7818 49.9451 46.7065C51.0976 47.851 51.7379 49.2498 51.8659 50.7757C50.9695 51.1572 50.4573 52.0473 50.4573 53.0646C50.4573 53.8276 50.7134 54.4634 51.2257 54.8449C50.7134 55.3535 50.3293 55.9893 50.3293 56.7523C50.3293 57.5153 50.5854 58.1511 51.0976 58.5326C50.5854 59.0412 50.3293 59.677 50.3293 60.3128C50.3293 61.7116 51.4818 62.856 52.8904 62.856H65.44C66.8486 62.856 68.0011 61.7116 68.0011 60.3128C68.0011 59.5498 67.745 58.914 67.2328 58.5326C67.745 58.0239 68.0011 57.3881 68.0011 56.7523C68.0011 55.9893 67.745 55.3535 67.2328 54.972C67.745 54.4634 68.0011 53.8276 68.0011 53.1918C68.0011 52.1745 67.3608 51.2843 66.5925 50.9029C66.7206 49.3769 67.3608 47.9781 68.5134 46.8337C71.0745 44.2905 72.4831 40.9843 72.4831 37.4237C72.6112 33.4817 70.9464 29.9212 68.1292 27.378Z" stroke="white" stroke-width="0.5386" stroke-miterlimit="10"/>
<path d="M68.1292 27.378C65.3119 24.8347 61.5983 23.6903 57.7566 24.0718C51.7379 24.8347 46.8717 29.5397 46.1034 35.5163C45.5911 39.7126 46.9998 43.7818 49.9451 46.7065C51.0976 47.851 51.7379 49.2498 51.8659 50.7757C50.9695 51.1572 50.4573 52.0473 50.4573 53.0646C50.4573 53.8276 50.7134 54.4634 51.2257 54.8449C50.7134 55.3535 50.3293 55.9893 50.3293 56.7523C50.3293 57.5153 50.5854 58.1511 51.0976 58.5326C50.5854 59.0412 50.3293 59.677 50.3293 60.3128C50.3293 61.7116 51.4818 62.856 52.8904 62.856H65.44C66.8486 62.856 68.0011 61.7116 68.0011 60.3128C68.0011 59.5498 67.745 58.914 67.2328 58.5326C67.745 58.0239 68.0011 57.3881 68.0011 56.7523C68.0011 55.9893 67.745 55.3535 67.2328 54.972C67.745 54.4634 68.0011 53.8276 68.0011 53.1918C68.0011 52.1745 67.3608 51.2843 66.5925 50.9029C66.7206 49.3769 67.3608 47.9781 68.5134 46.8337C71.0745 44.2905 72.4831 40.9843 72.4831 37.4237C72.6112 33.4817 70.9464 29.9212 68.1292 27.378ZM65.568 61.4573H53.0185C52.3782 61.4573 51.8659 60.9486 51.8659 60.3128C51.8659 59.677 52.3782 59.1684 53.0185 59.1684H65.568C66.2083 59.1684 66.7206 59.677 66.7206 60.3128C66.7206 61.0758 66.2083 61.4573 65.568 61.4573ZM65.568 57.8967H53.0185C52.3782 57.8967 51.8659 57.3881 51.8659 56.7523C51.8659 56.1165 52.3782 55.6078 53.0185 55.6078H65.568C66.2083 55.6078 66.7206 56.1165 66.7206 56.7523C66.7206 57.3881 66.2083 57.8967 65.568 57.8967ZM65.568 54.2091H53.0185C52.3782 54.2091 51.8659 53.7004 51.8659 53.0646C51.8659 52.4288 52.3782 51.9202 53.0185 51.9202H65.568C66.2083 51.9202 66.7206 52.4288 66.7206 53.0646C66.7206 53.7004 66.2083 54.2091 65.568 54.2091ZM67.4889 45.6892C66.2083 46.9609 65.3119 48.7411 65.1839 50.5214H53.2746C53.1465 48.7411 52.2501 46.9609 50.8415 45.5621C48.1523 43.0188 46.9998 39.3312 47.3839 35.6435C48.1523 30.4299 52.6343 26.1064 57.8846 25.5977C61.3422 25.2162 64.5436 26.2335 67.1047 28.5224C69.6659 30.8113 71.0745 33.9904 71.0745 37.2966C71.0745 40.4756 69.7939 43.4003 67.4889 45.6892Z" fill="black"/>
<path d="M68.1292 27.378C65.3119 24.8347 61.5983 23.6903 57.7566 24.0718C51.7379 24.8347 46.8717 29.5397 46.1034 35.5163C45.5911 39.7126 46.9998 43.7818 49.9451 46.7065C51.0976 47.851 51.7379 49.2498 51.8659 50.7757C50.9695 51.1572 50.4573 52.0473 50.4573 53.0646C50.4573 53.8276 50.7134 54.4634 51.2257 54.8449C50.7134 55.3535 50.3293 55.9893 50.3293 56.7523C50.3293 57.5153 50.5854 58.1511 51.0976 58.5326C50.5854 59.0412 50.3293 59.677 50.3293 60.3128C50.3293 61.7116 51.4818 62.856 52.8904 62.856H65.44C66.8486 62.856 68.0011 61.7116 68.0011 60.3128C68.0011 59.5498 67.745 58.914 67.2328 58.5326C67.745 58.0239 68.0011 57.3881 68.0011 56.7523C68.0011 55.9893 67.745 55.3535 67.2328 54.972C67.745 54.4634 68.0011 53.8276 68.0011 53.1918C68.0011 52.1745 67.3608 51.2843 66.5925 50.9029C66.7206 49.3769 67.3608 47.9781 68.5134 46.8337C71.0745 44.2905 72.4831 40.9843 72.4831 37.4237C72.6112 33.4817 70.9464 29.9212 68.1292 27.378ZM65.568 61.4573H53.0185C52.3782 61.4573 51.8659 60.9486 51.8659 60.3128C51.8659 59.677 52.3782 59.1684 53.0185 59.1684H65.568C66.2083 59.1684 66.7206 59.677 66.7206 60.3128C66.7206 61.0758 66.2083 61.4573 65.568 61.4573ZM65.568 57.8967H53.0185C52.3782 57.8967 51.8659 57.3881 51.8659 56.7523C51.8659 56.1165 52.3782 55.6078 53.0185 55.6078H65.568C66.2083 55.6078 66.7206 56.1165 66.7206 56.7523C66.7206 57.3881 66.2083 57.8967 65.568 57.8967ZM65.568 54.2091H53.0185C52.3782 54.2091 51.8659 53.7004 51.8659 53.0646C51.8659 52.4288 52.3782 51.9202 53.0185 51.9202H65.568C66.2083 51.9202 66.7206 52.4288 66.7206 53.0646C66.7206 53.7004 66.2083 54.2091 65.568 54.2091ZM67.4889 45.6892C66.2083 46.9609 65.3119 48.7411 65.1839 50.5214H53.2746C53.1465 48.7411 52.2501 46.9609 50.8415 45.5621C48.1523 43.0188 46.9998 39.3312 47.3839 35.6435C48.1523 30.4299 52.6343 26.1064 57.8846 25.5977C61.3422 25.2162 64.5436 26.2335 67.1047 28.5224C69.6659 30.8113 71.0745 33.9904 71.0745 37.2966C71.0745 40.4756 69.7939 43.4003 67.4889 45.6892Z" stroke="black" stroke-width="0.5386" stroke-miterlimit="10"/>
<path d="M60.4458 45.9436C59.6774 44.672 59.6774 42.6374 60.0616 41.2386C60.1897 40.3485 60.3177 39.3312 61.5983 39.204C62.4947 39.0768 62.8789 39.7127 62.6227 40.4756C62.2386 41.6201 59.9335 41.2386 58.9091 41.2386C57.1163 41.2386 55.7077 40.9843 54.5551 39.5855C53.6587 38.5682 52.2501 40.0941 53.1465 41.1114C55.3235 43.5275 59.1652 43.6547 62.1105 43.2732C64.6717 42.8917 65.44 40.8571 64.4155 38.5682C63.5191 36.6608 60.3177 36.6608 59.0371 38.1867C57.3724 40.2213 57.5005 44.7991 58.781 47.088C59.4213 48.2325 61.2141 47.088 60.4458 45.9436Z" fill="black"/>
<path d="M-1 492.584C8 492.584 169.6 492.584 192.5 492.584C207.1 492.584 207.4 481.284 207.4 475.884C207.4 470.484 207.4 406.084 207.4 406.084" stroke="black" stroke-width="1.9184" stroke-miterlimit="10" stroke-linecap="round" stroke-linejoin="round" stroke-dasharray="6.47 6.47"/>
<path d="M216 -3.51877e-06C216 9 216 7.6 216 30.5C216 45.1 227.3 45.4 232.7 45.4C238.1 45.4 296.5 45.4 296.5 45.4" stroke="black" stroke-width="1.9184" stroke-miterlimit="10" stroke-linecap="round" stroke-linejoin="round" stroke-dasharray="6.47 6.47"/>
<path d="M311.607 49.5714C310.75 49.5714 310 49.5714 309.25 49.5714C308.5 49.5714 307.857 49.5714 307.107 49.5714C305.607 49.5714 305.286 49.25 305.286 47.75C305.286 46.5714 305.286 45.5 305.286 44.3214C305.286 42.9286 305.5 42.7143 306.893 42.7143C308.071 42.7143 309.357 42.7143 310.536 42.7143C310.857 42.7143 311.179 42.6072 311.607 42.6072C311.607 42.1786 311.714 41.75 311.714 41.3214C311.714 40.1429 311.714 38.8572 311.714 37.6786C311.714 36.3929 311.929 36.1786 313.214 36.1786C314.607 36.1786 315.893 36.0714 317.286 36.0714C318.143 36.0714 318.357 36.2857 318.464 37.25C318.464 38.5357 318.464 39.8214 318.464 41C318.464 41.2143 318.464 41.4286 318.464 41.6429C318.464 42.6072 318.571 42.7143 319.643 42.7143C321.036 42.7143 322.321 42.7143 323.714 42.7143C324.893 42.7143 325.107 42.9286 325.107 44.1072C325.107 45.5 325.214 47 325.214 48.3929C325.214 49.25 324.893 49.5714 324.036 49.5714C322.643 49.5714 321.25 49.5714 319.857 49.5714C318.571 49.5714 318.571 49.5714 318.571 50.9643C318.571 52.1429 318.571 53.3214 318.571 54.5C318.571 55.6786 318.25 56 317.071 56C315.786 56 314.5 56 313.321 56C312.143 56 311.821 55.5714 311.821 54.3929C311.821 53 311.821 51.7143 311.821 50.3214C311.714 50.1072 311.607 50 311.607 49.5714ZM313.321 37.8929C313.321 38.4286 313.214 38.75 313.321 39.1786C313.321 40.25 313.321 41.4286 313.321 42.5C313.321 44.2143 313.107 44.4286 311.5 44.4286C310.321 44.4286 309.143 44.4286 308.071 44.5357C307.75 44.5357 307.429 44.6429 307 44.6429C307 45.7143 306.786 46.7857 307.214 47.75C307.536 47.75 307.857 47.8572 308.071 47.8572C309.357 47.8572 310.643 47.8572 312.036 47.8572C313.321 47.8572 313.429 48.0714 313.536 49.3572C313.536 50.5357 313.536 51.8214 313.536 53C313.536 53.4286 313.643 53.75 313.643 54.1786C314.821 54.2857 315.786 54.3929 316.857 54.0714C316.857 53.6429 316.857 53.2143 316.857 52.7857C316.857 51.7143 316.857 50.5357 316.857 49.4643C316.857 48.1786 317.179 47.8572 318.357 47.8572C319.536 47.8572 320.821 47.8572 322 47.75C322.429 47.75 322.857 47.6429 323.393 47.6429C323.393 46.8929 323.393 46.25 323.393 45.5C323.393 44.4286 323.286 44.4286 322.214 44.4286C320.821 44.4286 319.429 44.4286 318.036 44.4286C316.857 44.4286 316.643 44.2143 316.643 43.0357C316.643 41.6429 316.643 40.25 316.643 38.8572C316.643 38.5357 316.536 38.2143 316.536 37.7857C315.464 37.8929 314.5 37.8929 313.321 37.8929Z" fill="black"/>
<path d="M311.607 49.5714C310.75 49.5714 310 49.5714 309.25 49.5714C308.5 49.5714 307.857 49.5714 307.107 49.5714C305.607 49.5714 305.286 49.25 305.286 47.75C305.286 46.5714 305.286 45.5 305.286 44.3214C305.286 42.9286 305.5 42.7143 306.893 42.7143C308.071 42.7143 309.357 42.7143 310.536 42.7143C310.857 42.7143 311.179 42.6072 311.607 42.6072C311.607 42.1786 311.714 41.75 311.714 41.3214C311.714 40.1429 311.714 38.8572 311.714 37.6786C311.714 36.3929 311.929 36.1786 313.214 36.1786C314.607 36.1786 315.893 36.0714 317.286 36.0714C318.143 36.0714 318.357 36.2857 318.464 37.25C318.464 38.5357 318.464 39.8214 318.464 41C318.464 41.2143 318.464 41.4286 318.464 41.6429C318.464 42.6072 318.571 42.7143 319.643 42.7143C321.036 42.7143 322.321 42.7143 323.714 42.7143C324.893 42.7143 325.107 42.9286 325.107 44.1072C325.107 45.5 325.214 47 325.214 48.3929C325.214 49.25 324.893 49.5714 324.036 49.5714C322.643 49.5714 321.25 49.5714 319.857 49.5714C318.571 49.5714 318.571 49.5714 318.571 50.9643C318.571 52.1429 318.571 53.3214 318.571 54.5C318.571 55.6786 318.25 56 317.071 56C315.786 56 314.5 56 313.321 56C312.143 56 311.821 55.5714 311.821 54.3929C311.821 53 311.821 51.7143 311.821 50.3214C311.714 50.1072 311.607 50 311.607 49.5714ZM313.321 37.8929C313.321 38.4286 313.214 38.75 313.321 39.1786C313.321 40.25 313.321 41.4286 313.321 42.5C313.321 44.2143 313.107 44.4286 311.5 44.4286C310.321 44.4286 309.143 44.4286 308.071 44.5357C307.75 44.5357 307.429 44.6429 307 44.6429C307 45.7143 306.786 46.7857 307.214 47.75C307.536 47.75 307.857 47.8572 308.071 47.8572C309.357 47.8572 310.643 47.8572 312.036 47.8572C313.321 47.8572 313.429 48.0714 313.536 49.3572C313.536 50.5357 313.536 51.8214 313.536 53C313.536 53.4286 313.643 53.75 313.643 54.1786C314.821 54.2857 315.786 54.3929 316.857 54.0714C316.857 53.6429 316.857 53.2143 316.857 52.7857C316.857 51.7143 316.857 50.5357 316.857 49.4643C316.857 48.1786 317.179 47.8572 318.357 47.8572C319.536 47.8572 320.821 47.8572 322 47.75C322.429 47.75 322.857 47.6429 323.393 47.6429C323.393 46.8929 323.393 46.25 323.393 45.5C323.393 44.4286 323.286 44.4286 322.214 44.4286C320.821 44.4286 319.429 44.4286 318.036 44.4286C316.857 44.4286 316.643 44.2143 316.643 43.0357C316.643 41.6429 316.643 40.25 316.643 38.8572C316.643 38.5357 316.536 38.2143 316.536 37.7857C315.464 37.8929 314.5 37.8929 313.321 37.8929Z" stroke="black" stroke-width="0.3287" stroke-miterlimit="10"/>
<path d="M313.321 37.8929C314.5 37.8929 315.464 37.8929 316.536 37.8929C316.536 38.2143 316.643 38.5357 316.643 38.9643C316.643 40.3571 316.643 41.75 316.643 43.1429C316.643 44.2143 316.857 44.4286 317.929 44.4286C319.321 44.4286 320.714 44.4286 322.107 44.4286C323.179 44.4286 323.286 44.5357 323.286 45.5C323.286 46.1429 323.286 46.7857 323.286 47.6429C322.857 47.6429 322.429 47.6429 322 47.6429C320.821 47.6429 319.536 47.6429 318.357 47.75C317.179 47.75 316.857 48.0714 316.857 49.3571C316.857 50.4286 316.857 51.6071 316.857 52.6786C316.857 53.1071 316.857 53.5357 316.857 53.9643C315.786 54.2857 314.821 54.1786 313.643 54.0714C313.536 53.75 313.429 53.3214 313.429 53C313.429 51.8214 313.429 50.5357 313.429 49.3571C313.429 48.0714 313.214 47.8571 311.929 47.8571C310.643 47.8571 309.357 47.8571 307.964 47.8571C307.643 47.8571 307.429 47.8571 307.107 47.75C306.786 46.7857 307 45.7143 307 44.6429C307.429 44.6429 307.75 44.5357 308.071 44.5357C309.143 44.4286 310.321 44.4286 311.5 44.4286C313.107 44.4286 313.321 44.1071 313.321 42.5C313.321 41.4286 313.321 40.25 313.321 39.1786C313.321 38.8571 313.321 38.4286 313.321 37.8929Z" fill="black"/>
<path d="M310.321 48.5C309.464 48.5 308.714 48.5 307.964 48.5C307.214 48.5 306.571 48.5 305.821 48.5C304.321 48.5 304 48.1786 304 46.6786C304 45.5 304 44.4286 304 43.25C304 41.8571 304.214 41.6429 305.607 41.6429C306.786 41.6429 308.071 41.6429 309.25 41.6429C309.571 41.6429 309.893 41.5357 310.321 41.5357C310.321 41.1071 310.429 40.6786 310.429 40.25C310.429 39.0714 310.429 37.7857 310.429 36.6071C310.429 35.3214 310.643 35.1071 311.929 35.1071C313.321 35.1071 314.607 35 316 35C316.857 35 317.071 35.2143 317.179 36.1786C317.179 37.4643 317.179 38.75 317.179 39.9286C317.179 40.1429 317.179 40.3571 317.179 40.5714C317.179 41.5357 317.286 41.6429 318.357 41.6429C319.75 41.6429 321.036 41.6429 322.429 41.6429C323.607 41.6429 323.821 41.8571 323.821 43.0357C323.821 44.4286 323.929 45.9286 323.929 47.3214C323.929 48.1786 323.607 48.5 322.75 48.5C321.357 48.5 319.964 48.5 318.571 48.5C317.286 48.5 317.286 48.5 317.286 49.8929C317.286 51.0714 317.286 52.25 317.286 53.4286C317.286 54.6071 316.964 54.9286 315.786 54.9286C314.5 54.9286 313.214 54.9286 312.036 54.9286C310.857 54.9286 310.536 54.5 310.536 53.3214C310.536 51.9286 310.536 50.6429 310.536 49.25C310.429 49.0357 310.321 48.8214 310.321 48.5ZM312.036 36.8214C312.036 37.3571 311.929 37.6786 312.036 38.1071C312.036 39.1786 312.036 40.3571 312.036 41.4286C312.036 43.0357 311.821 43.25 310.214 43.3571C309.036 43.3571 307.964 43.3571 306.786 43.3571C306.464 43.3571 306.143 43.4643 305.714 43.4643C305.714 44.5357 305.5 45.6071 305.929 46.5714C306.25 46.5714 306.571 46.6786 306.786 46.6786C308.071 46.6786 309.357 46.6786 310.75 46.6786C312.036 46.6786 312.143 46.8929 312.25 48.1786C312.25 49.3571 312.25 50.6429 312.25 51.8214C312.25 52.25 312.357 52.5714 312.357 53C313.536 53.1071 314.5 53.2143 315.571 52.8929C315.571 52.4643 315.571 52.0357 315.571 51.6071C315.571 50.5357 315.571 49.3571 315.571 48.2857C315.571 47 315.893 46.6786 317.071 46.6786C318.25 46.6786 319.536 46.6786 320.714 46.5714C321.143 46.5714 321.571 46.4643 322.107 46.4643C322.107 45.7143 322.107 45.0714 322.107 44.3214C322.107 43.25 322 43.25 320.929 43.25C319.536 43.25 318.143 43.25 316.75 43.25C315.571 43.25 315.464 43.0357 315.464 41.9643C315.464 40.5714 315.464 39.1786 315.464 37.7857C315.464 37.4643 315.357 37.1429 315.357 36.7143C314.179 36.7143 313.214 36.8214 312.036 36.8214Z" fill="black"/>
<path d="M310.321 48.5C309.464 48.5 308.714 48.5 307.964 48.5C307.214 48.5 306.571 48.5 305.821 48.5C304.321 48.5 304 48.1786 304 46.6786C304 45.5 304 44.4286 304 43.25C304 41.8571 304.214 41.6429 305.607 41.6429C306.786 41.6429 308.071 41.6429 309.25 41.6429C309.571 41.6429 309.893 41.5357 310.321 41.5357C310.321 41.1071 310.429 40.6786 310.429 40.25C310.429 39.0714 310.429 37.7857 310.429 36.6071C310.429 35.3214 310.643 35.1071 311.929 35.1071C313.321 35.1071 314.607 35 316 35C316.857 35 317.071 35.2143 317.179 36.1786C317.179 37.4643 317.179 38.75 317.179 39.9286C317.179 40.1429 317.179 40.3571 317.179 40.5714C317.179 41.5357 317.286 41.6429 318.357 41.6429C319.75 41.6429 321.036 41.6429 322.429 41.6429C323.607 41.6429 323.821 41.8571 323.821 43.0357C323.821 44.4286 323.929 45.9286 323.929 47.3214C323.929 48.1786 323.607 48.5 322.75 48.5C321.357 48.5 319.964 48.5 318.571 48.5C317.286 48.5 317.286 48.5 317.286 49.8929C317.286 51.0714 317.286 52.25 317.286 53.4286C317.286 54.6071 316.964 54.9286 315.786 54.9286C314.5 54.9286 313.214 54.9286 312.036 54.9286C310.857 54.9286 310.536 54.5 310.536 53.3214C310.536 51.9286 310.536 50.6429 310.536 49.25C310.429 49.0357 310.321 48.8214 310.321 48.5ZM312.036 36.8214C312.036 37.3571 311.929 37.6786 312.036 38.1071C312.036 39.1786 312.036 40.3571 312.036 41.4286C312.036 43.0357 311.821 43.25 310.214 43.3571C309.036 43.3571 307.964 43.3571 306.786 43.3571C306.464 43.3571 306.143 43.4643 305.714 43.4643C305.714 44.5357 305.5 45.6071 305.929 46.5714C306.25 46.5714 306.571 46.6786 306.786 46.6786C308.071 46.6786 309.357 46.6786 310.75 46.6786C312.036 46.6786 312.143 46.8929 312.25 48.1786C312.25 49.3571 312.25 50.6429 312.25 51.8214C312.25 52.25 312.357 52.5714 312.357 53C313.536 53.1071 314.5 53.2143 315.571 52.8929C315.571 52.4643 315.571 52.0357 315.571 51.6071C315.571 50.5357 315.571 49.3571 315.571 48.2857C315.571 47 315.893 46.6786 317.071 46.6786C318.25 46.6786 319.536 46.6786 320.714 46.5714C321.143 46.5714 321.571 46.4643 322.107 46.4643C322.107 45.7143 322.107 45.0714 322.107 44.3214C322.107 43.25 322 43.25 320.929 43.25C319.536 43.25 318.143 43.25 316.75 43.25C315.571 43.25 315.464 43.0357 315.464 41.9643C315.464 40.5714 315.464 39.1786 315.464 37.7857C315.464 37.4643 315.357 37.1429 315.357 36.7143C314.179 36.7143 313.214 36.8214 312.036 36.8214Z" stroke="black" stroke-width="0.3287" stroke-miterlimit="10"/>
<path d="M312.036 36.8214C313.214 36.8214 314.179 36.8214 315.25 36.8214C315.25 37.1428 315.357 37.4643 315.357 37.8928C315.357 39.2857 315.357 40.6786 315.357 42.0714C315.357 43.1428 315.571 43.3571 316.643 43.3571C318.036 43.3571 319.429 43.3571 320.821 43.3571C321.893 43.3571 322 43.4643 322 44.4286C322 45.0714 322 45.7143 322 46.5714C321.464 46.5714 321.036 46.6786 320.607 46.6786C319.429 46.6786 318.143 46.6786 316.964 46.7857C315.786 46.7857 315.464 47.1071 315.464 48.3928C315.464 49.4643 315.464 50.6428 315.464 51.7143C315.464 52.1428 315.464 52.5714 315.464 53C314.393 53.3214 313.429 53.2143 312.25 53.1071C312.25 52.6786 312.143 52.3571 312.143 51.9286C312.143 50.75 312.143 49.4643 312.143 48.2857C312.143 47 311.929 46.7857 310.643 46.7857C309.357 46.7857 308.071 46.7857 306.679 46.7857C306.357 46.7857 306.143 46.7857 305.821 46.6786C305.5 45.7143 305.607 44.6428 305.607 43.5714C306.036 43.5714 306.357 43.4643 306.679 43.4643C307.964 43.3571 309.036 43.3571 310.214 43.3571C311.821 43.3571 312.036 43.0357 312.036 41.4286C312.036 40.3571 312.036 39.1786 312.036 38.1071C312.036 37.6786 312.036 37.3571 312.036 36.8214Z" fill="white"/>
<path opacity="0.4" d="M71 382C71 382 103.016 382 109.916 382C116.916 382 125.816 386.1 125.816 398C125.816 409.9 125.816 414.4 125.816 431.8C125.816 447.2 121.116 449.5 109.916 449.5C97.7163 449.5 -156 449.5 -156 449.5" stroke="#9E1F63" stroke-width="1.9184" stroke-miterlimit="10" stroke-linecap="round" stroke-linejoin="round" stroke-dasharray="6.47 6.47"/>
<path d="M80.7727 44C80.7727 44 88.9228 44 93.183 44C97.5049 44 103 46.5511 103 53.9555C103 61.36 103 64.16 103 74.9866C103 84.5689 99.0981 86 92.183 86C84.6504 86 -71 86 -71 86" stroke="black" stroke-width="1.9184" stroke-miterlimit="10" stroke-linecap="round" stroke-linejoin="round" stroke-dasharray="6.47 6.47"/>
<path d="M334.787 385.165H271.874C270.19 385.165 268.861 383.836 268.861 382.152V379.317C268.861 377.722 270.19 376.304 271.874 376.304H334.787C336.471 376.304 337.8 377.633 337.8 379.317V382.152C337.8 383.836 336.471 385.165 334.787 385.165Z" fill="black" stroke="black" stroke-width="2" stroke-miterlimit="10" stroke-linecap="round" stroke-linejoin="round"/>
<path d="M334.787 394.026H271.874C270.19 394.026 268.861 392.697 268.861 391.014V388.178C268.861 386.494 270.19 385.165 271.874 385.165H334.787C336.471 385.165 337.8 386.494 337.8 388.178V391.014C337.8 392.697 336.471 394.026 334.787 394.026Z" fill="black" stroke="black" stroke-width="2" stroke-miterlimit="10" stroke-linecap="round" stroke-linejoin="round"/>
<path d="M290.836 376.304H282.596V394.026H290.836V376.304Z" fill="black" stroke="black" stroke-width="2.0621" stroke-miterlimit="10" stroke-linecap="round" stroke-linejoin="round" stroke-dasharray="6.83 6.83"/>
<path d="M322.027 376.304H313.787V394.026H322.027V376.304Z" fill="black" stroke="black" stroke-width="2.0621" stroke-miterlimit="10" stroke-linecap="round" stroke-linejoin="round" stroke-dasharray="6.83 6.83"/>
<path d="M332.927 383.393H270.013C268.329 383.393 267 382.064 267 380.38V377.545C267 375.95 268.329 374.532 270.013 374.532H332.927C334.61 374.532 335.939 375.861 335.939 377.545V380.38C335.939 382.064 334.61 383.393 332.927 383.393Z" fill="#FF7171" stroke="black" stroke-width="1.8" stroke-miterlimit="10" stroke-linecap="round" stroke-linejoin="round"/>
<path d="M332.927 392.254H270.013C268.329 392.254 267 390.925 267 389.241V386.406C267 384.722 268.329 383.393 270.013 383.393H332.927C334.61 383.393 335.939 384.722 335.939 386.406V389.241C335.939 390.925 334.61 392.254 332.927 392.254Z" fill="#FF7171" stroke="black" stroke-width="1.8" stroke-miterlimit="10" stroke-linecap="round" stroke-linejoin="round"/>
<path d="M288.976 374.532H280.735V392.254H288.976V374.532Z" fill="black" stroke="black" stroke-width="2.0621" stroke-miterlimit="10" stroke-linecap="round" stroke-linejoin="round" stroke-dasharray="6.83 6.83"/>
<path d="M320.167 374.532H311.926V392.254H320.167V374.532Z" fill="black" stroke="black" stroke-width="2.0621" stroke-miterlimit="10" stroke-linecap="round" stroke-linejoin="round" stroke-dasharray="6.83 6.83"/>
<circle cx="301.115" cy="381.178" r="7.80416" fill="white" stroke="black" stroke-width="3"/>
<circle cx="300.229" cy="380.292" r="7.80416" fill="white" stroke="black" stroke-width="3"/>
<path d="M300.672 372.317C300.672 370.101 302.799 367 307.761 367C312.723 367 316.031 371.431 316.179 374.089" stroke="black" stroke-width="2.5"/>
<path d="M300.229 379.849V375.861" stroke="black" stroke-width="2" stroke-linecap="round"/>
<path d="M300.672 379.849L304.66 379.849" stroke="black" stroke-width="2" stroke-linecap="round"/>
<path d="M-13.6269 427.314V394.854C-13.6269 366.261 3.45714 348.457 34.1185 348.457C64.7798 348.457 81.8639 366.261 81.8639 394.854V427.404C81.8639 455.997 64.7798 473.801 34.1185 473.801C3.54705 473.801 -13.6269 455.997 -13.6269 427.314ZM51.8319 428.393V393.775C51.8319 381.816 45.7176 375.522 34.2084 375.522C22.6992 375.522 16.5849 381.816 16.5849 393.775V428.303C16.5849 440.352 22.6992 446.556 34.2084 446.556C45.7176 446.646 51.8319 440.352 51.8319 428.393Z" fill="black"/>
<path d="M-13.6269 427.314V394.854C-13.6269 366.261 3.45714 348.457 34.1185 348.457C64.7798 348.457 81.8639 366.261 81.8639 394.854V427.404C81.8639 455.997 64.7798 473.801 34.1185 473.801C3.54706 473.801 -13.6269 455.997 -13.6269 427.314ZM51.8319 428.393V393.775C51.8319 381.816 45.7176 375.522 34.2084 375.522C22.6992 375.522 16.5849 381.816 16.5849 393.775V428.303C16.5849 440.352 22.6992 446.556 34.2084 446.556C45.7176 446.646 51.8319 440.352 51.8319 428.393Z" stroke="black" stroke-width="4.9493" stroke-miterlimit="10"/>
<path d="M-21 423.088V390.538C-21 361.945 -3.91597 344.141 26.7454 344.141C57.4067 344.141 74.4908 361.945 74.4908 390.538V423.088C74.4908 451.681 57.4067 469.485 26.7454 469.485C-3.91597 469.485 -21 451.681 -21 423.088ZM44.3689 424.077V389.549C44.3689 377.5 38.2546 371.296 26.7454 371.296C15.2361 371.296 9.12185 377.59 9.12185 389.549V424.077C9.12185 436.126 15.2361 442.33 26.7454 442.33C38.2546 442.42 44.3689 436.126 44.3689 424.077Z" fill="white"/>
<path d="M-21 423.088V390.538C-21 361.945 -3.91597 344.141 26.7454 344.141C57.4067 344.141 74.4908 361.945 74.4908 390.538V423.088C74.4908 451.681 57.4067 469.485 26.7454 469.485C-3.91597 469.485 -21 451.681 -21 423.088ZM44.3689 424.077V389.549C44.3689 377.5 38.2546 371.296 26.7454 371.296C15.2361 371.296 9.12185 377.59 9.12185 389.549V424.077C9.12185 436.126 15.2361 442.33 26.7454 442.33C38.2546 442.42 44.3689 436.126 44.3689 424.077Z" stroke="black" stroke-width="3.9847" stroke-miterlimit="10"/>
<path d="M25.4866 346.479C25.4866 342.433 22.2496 339.196 18.2034 339.196C14.1571 339.196 10.9202 342.433 10.9202 346.479C10.9202 350.525 14.1571 353.762 18.2034 353.762C22.2496 353.762 25.4866 350.525 25.4866 346.479Z" fill="white"/>
<path d="M42.6605 346.479C42.6605 342.433 39.4235 339.196 35.3773 339.196C31.3311 339.196 28.0941 342.433 28.0941 346.479C28.0941 350.525 31.3311 353.762 35.3773 353.762C39.4235 353.762 42.6605 350.525 42.6605 346.479Z" fill="white"/>
<path d="M26.7454 351.694C26.4756 352.054 26.116 352.414 25.8462 352.773C23.0588 355.651 19.642 356.64 15.7756 355.74C11.9092 354.931 9.30167 352.414 8.22268 348.547C6.78403 343.152 10.6504 337.397 16.2252 336.498C20.2714 335.869 23.5983 337.038 26.2059 340.095C26.3857 340.275 26.4756 340.455 26.4756 340.545C27.6445 339.555 28.5437 338.476 29.7126 337.757C35.5571 333.801 43.5597 336.858 45.358 343.602C46.7067 348.727 43.5597 354.032 38.2546 355.381C34.0286 356.46 30.342 355.471 27.3748 352.144C27.2849 352.054 27.105 351.874 27.0151 351.784C26.9252 351.694 26.9252 351.694 26.7454 351.694ZM35.3773 339.106C34.658 339.196 33.9386 339.286 33.3092 339.466C30.2521 340.365 28.0042 343.512 28.3639 346.479C28.7235 349.806 31.1513 352.054 34.658 352.414C37.805 352.773 40.9521 350.885 42.0311 347.918C43.5597 343.782 40.1428 339.196 35.3773 339.106ZM18.1134 352.863C21.9798 352.863 25.1269 349.896 25.1269 346.389C25.1269 342.703 21.8899 339.555 18.1134 339.555C14.2471 339.555 11.1 342.703 11.1 346.389C11.1 349.896 14.337 352.863 18.1134 352.863Z" fill="black"/>
<path d="M36.5899 340.095C38.5681 340.095 40.0966 341.624 40.0966 343.512C40.0966 345.49 38.4782 347.019 36.4101 347.019C34.5219 347.019 32.8134 345.4 32.9034 343.512C32.9933 341.534 34.7017 340.005 36.5899 340.095Z" fill="black"/>
<path d="M19.3261 340.095C21.3042 340.095 22.8328 341.624 22.9227 343.602C22.9227 345.58 21.3042 347.198 19.3261 347.108C17.3479 347.108 15.8193 345.49 15.7294 343.602C15.7294 341.713 17.3479 340.095 19.3261 340.095Z" fill="black"/>
</svg>
