<svg height="512pt" viewBox="0 -14 512.001 512" width="512pt" xmlns="http://www.w3.org/2000/svg"><path d="m401.054688 152.554688c0 80.109374-64.945313 145.054687-145.054688 145.054687s-145.054688-64.945313-145.054688-145.054687c0-80.109376 64.945313-145.054688 145.054688-145.054688s145.054688 64.945312 145.054688 145.054688zm0 0" fill="#ff899f"/><path d="m297.605469 332.234375c0 80.109375-64.941407 145.050781-145.050781 145.050781-80.113282 0-145.054688-64.941406-145.054688-145.050781 0-80.113281 64.941406-145.054687 145.054688-145.054687 80.109374 0 145.050781 64.941406 145.050781 145.054687zm0 0" fill="#a4e7ff"/><path d="m152.554688 187.179688c-12.515626 0-24.667969 1.585937-36.25 4.566406 17.097656 61.070312 73.164062 105.863281 139.695312 105.863281 12.515625 0 24.660156-1.585937 36.242188-4.566406-17.097657-61.070313-73.160157-105.863281-139.6875-105.863281zm0 0" fill="#996acc"/><path d="m504.5 332.234375c0 80.109375-64.941406 145.050781-145.054688 145.050781-80.109374 0-145.050781-64.941406-145.050781-145.050781 0-80.113281 64.941407-145.054687 145.050781-145.054687 80.113282 0 145.054688 64.941406 145.054688 145.054687zm0 0" fill="#73da8c"/><path d="m255.996094 230.546875c-25.726563 26.175781-41.601563 62.082031-41.601563 101.6875 0 39.601563 15.878907 75.503906 41.605469 101.679687 25.726562-26.175781 41.605469-62.078124 41.605469-101.679687 0-39.605469-15.878907-75.511719-41.609375-101.6875zm0 0" fill="#00bfd7"/><path d="m395.695312 191.746094c-11.585937-2.980469-23.734374-4.566406-36.25-4.566406-66.527343 0-122.597656 44.789062-139.695312 105.859374 11.585938 2.980469 23.734375 4.566407 36.25 4.566407 66.53125.003906 122.597656-44.789063 139.695312-105.859375zm0 0" fill="#f4e74d"/><path d="m219.75 293.039062c11.585938 2.980469 23.734375 4.566407 36.25 4.566407s24.660156-1.582031 36.242188-4.5625c-6.6875-23.886719-19.339844-45.296875-36.246094-62.496094-16.902344 17.203125-29.558594 38.609375-36.246094 62.492187zm0 0" fill="#fff8e6"/><path d="m200.183594 133.039062c0-9.078124-9.242188-16.4375-20.640625-16.4375-11.402344 0-20.640625 7.359376-20.640625 16.4375 0 9.078126 9.238281 16.433594 20.640625 16.433594 11.398437 0 20.640625-7.355468 20.640625-16.433594zm0 0" fill="#ffdee4"/><path d="m353.097656 133.039062c0-9.078124-9.238281-16.4375-20.640625-16.4375-11.398437 0-20.640625 7.359376-20.640625 16.4375 0 9.078126 9.242188 16.433594 20.640625 16.433594 11.402344 0 20.640625-7.355468 20.640625-16.433594zm0 0" fill="#ffdee4"/><path d="m325.304688 116.902344v-12.449219c0-4.144531-3.355469-7.5-7.5-7.5-4.140626 0-7.5 3.355469-7.5 7.5v12.449219c0 4.140625 3.359374 7.5 7.5 7.5 4.144531 0 7.5-3.359375 7.5-7.5zm0 0"/><path d="m201.695312 116.902344v-12.449219c0-4.144531-3.359374-7.5-7.5-7.5-4.144531 0-7.5 3.355469-7.5 7.5v12.449219c0 4.140625 3.355469 7.5 7.5 7.5 4.140626 0 7.5-3.359375 7.5-7.5zm0 0"/><path d="m256 127.171875c7.140625 0 13.738281-3.558594 17.660156-9.527344 2.273438-3.460937 1.3125-8.113281-2.152344-10.386719-1.269531-.832031-6.878906-2.992187-10.386718 2.152344-1.679688 2.464844-4.125 2.761719-5.121094 2.761719-.992188 0-3.484375-.269531-5.121094-2.761719-2.277344-3.460937-6.925781-4.425781-10.386718-2.152344-3.464844 2.273438-4.425782 6.925782-2.152344 10.386719 3.921875 5.96875 10.519531 9.527344 17.660156 9.527344zm0 0"/><path d="m404.730469 186.539062c2.5-10.929687 3.824219-22.304687 3.824219-33.984374 0-84.121094-68.4375-152.554688-152.554688-152.554688-46.539062 0-89.941406 20.847656-119.085938 57.199219-2.589843 3.230469-2.070312 7.949219 1.160157 10.542969 3.230469 2.589843 7.953125 2.070312 10.542969-1.160157 26.28125-32.78125 65.421874-51.582031 107.382812-51.582031 75.847656 0 137.554688 61.707031 137.554688 137.554688 0 10.386718-1.164063 20.503906-3.359376 30.238281-9.933593-2.039063-20.21875-3.113281-30.75-3.113281-39.882812 0-76.234374 15.394531-103.445312 40.539062-27.210938-25.144531-63.5625-40.539062-103.445312-40.539062-10.53125 0-20.816407 1.074218-30.75 3.113281-2.191407-9.734375-3.359376-19.851563-3.359376-30.238281 0-22.167969 5.394532-44.1875 15.597657-63.683594 1.921875-3.671875.503906-8.203125-3.167969-10.121094-3.667969-1.921875-8.199219-.503906-10.121094 3.164062-11.320312 21.632813-17.308594 46.0625-17.308594 70.640626 0 11.679687 1.324219 23.054687 3.824219 33.984374-62.078125 19.335938-107.269531 77.335938-107.269531 145.695313 0 84.117187 68.433594 152.550781 152.554688 152.550781 61.839843 0 98.429687-35.816406 103.5-40.492187 27.203124 25.121093 63.535156 40.492187 103.394531 40.492187 84.117187 0 152.550781-68.433594 152.550781-152.550781 0-68.359375-45.191406-126.359375-107.269531-145.695313zm-18.648438 10.738282c-14.167969 41.089844-47.285156 73.429687-88.863281 86.519531-6.621094-19.722656-17.171875-37.65625-30.714844-52.871094 24.496094-22.492187 57.144532-36.246093 92.941406-36.246093 9.113282 0 18.015626.898437 26.636719 2.597656zm-130.082031 44.398437c11.636719 13.277344 20.765625 28.800781 26.636719 45.832031-8.621094 1.699219-17.527344 2.601563-26.636719 2.601563s-18.015625-.902344-26.636719-2.601563c5.871094-17.03125 15-32.554687 26.636719-45.832031zm-103.445312-46.996093c35.796874 0 68.445312 13.753906 92.941406 36.246093-13.542969 15.214844-24.09375 33.148438-30.714844 52.871094-41.578125-13.089844-74.695312-45.429687-88.863281-86.519531 8.621093-1.699219 17.523437-2.597656 26.636719-2.597656zm0 275.105468c-75.847657 0-137.554688-61.707031-137.554688-137.550781 0-61.496094 40.5625-113.6875 96.332031-131.242187 15.53125 46.265624 52.675781 82.707031 99.382813 97.253906-2.496094 10.933594-3.820313 22.308594-3.820313 33.988281 0 38.871094 14.621094 74.386719 38.640625 101.351563-4.476562 4.101562-32.167968 36.199218-92.980468 36.199218zm206.890624 0c-35.765624 0-68.386718-13.726562-92.875-36.183594 12.128907-13.617187 21.757813-29.332031 28.398438-46.578124 1.488281-3.867188-.441406-8.207032-4.304688-9.695313-3.867187-1.488281-8.207031.441406-9.695312 4.304687-5.859375 15.222657-14.308594 29.113282-24.917969 41.210938-21.253906-24.21875-34.15625-55.933594-34.15625-90.613281 0-10.386719 1.164063-20.503907 3.355469-30.238281 9.9375 2.039062 20.21875 3.113281 30.75 3.113281s20.8125-1.074219 30.75-3.113281c2.191406 9.734374 3.355469 19.851562 3.355469 30.238281 0 7.15625-.554688 14.335937-1.644531 21.351562-.636719 4.089844 2.164062 7.925781 6.257812 8.5625 4.097656.640625 7.925781-2.164062 8.5625-6.257812 1.210938-7.773438 1.824219-15.730469 1.824219-23.65625 0-11.679688-1.324219-23.054688-3.820313-33.984375 46.707032-14.550782 83.847656-50.988282 99.378906-97.257813 55.773438 17.558594 96.335938 69.753907 96.335938 131.246094 0 75.84375-61.707031 137.550781-137.554688 137.550781zm0 0"/></svg>